<svg xmlns="http://www.w3.org/2000/svg" viewBox="0 0 287 242">
  <!-- SVG logo of Minh Khoe Tue Y System (MKTY System) by DuYu (202103180009@stu.qlu.edu.cn, https://github.com/duyu09/MKTY-System) -->
  <!-- Copyright (c) 2024~2025 Du Yu (No.202103180009), Faculty of Computer Science and Technology, Qilu University of Technology (Shandong Academy of Sciences). -->
  <g id="b82c13c5-a448-4457-8a5b-65ac16f11042" data-name="floor_2">
    <g id="e1c3c9a6-469a-470f-aa10-b53a39229edc" data-name="floor_1">
      <g>
        <rect x="8" y="32" width="275" height="206" rx="23.94161" style="fill: none;stroke: #93278f;stroke-miterlimit: 10;stroke-width: 8px"/>
        <g>
          <path d="M259.10932,21H19.89068C8.95081,21,0,30.61063,0,42.357v170.2861C0,224.38937,8.95081,234,19.89068,234H259.10932C270.04919,234,279,224.38937,279,212.64305V42.357C279,30.61063,270.04919,21,259.10932,21ZM245.79084,212.35829H33.20916c-7.1793,0-13.05327-6.307-13.05327-14.0155V55.51817c0-7.70852,5.874-14.0155,13.05327-14.0155H245.79084c7.1793,0,13.05327,6.307,13.05327,14.0155V198.34279C258.84411,206.05131,252.97014,212.35829,245.79084,212.35829Z" style="fill: #13227a"/>
          <path d="M219.27177,148.57219c.06217-.02874.1554.10472.21756.23821.404.76751.83914,1.50166,1.24317,2.26918,1.554,2.83647,6.99282,2.04876,6.99282,2.04876H238.667c6.14224,0,6.14224-10.25133,0-10.25133H227.24179c-4.13726-7.55181-6.87421-12.54081-11.04331-20.09262a4.88707,4.88707,0,0,0-1.90951-1.94776v-4.15749h27.58175v-2.27807H214.289V84.7861h27.58175V82.508H214.289V51.754H212.1673V82.508H184.58555V51.754h-2.12167V82.508H155.943V51.754h-2.12168V82.508h-6.96406s-2.11338-13.91968-3.20115-20.69383c-.777-5.00554-7.9252-4.57173-8.98189,0-1.554,6.77415-3.10792,13.51495-4.693,20.69383h-3.74169V51.754h-2.12167V82.508H96.53612V51.754H94.41445V82.508H66.8327V51.754H64.711V82.508H35.0076V84.7861H64.711v29.615H35.0076v2.27807H64.711V144.016H40.34058a4.1838,4.1838,0,0,0-3.8137,2.27808H35.0076v2.27807h.39967a5.75811,5.75811,0,0,0,4.50648,5.69519H64.711v23.91979H35.0076v2.27807H64.711V202.107H66.8327V180.46524H94.41445V202.107h2.12167V180.46524h27.58175V202.107h2.12167V180.46524h26.616a2.55131,2.55131,0,0,1-.09509,1.41506V202.107h2.12167v-7.67943c2.60421,2.436,7.01746,2.36928,8.416-.70077,2.11338-4.67183,6.12261-13.26149,6.12261-13.26149h13.04312V202.107h2.12167V180.46524H212.1673V202.107H214.289V180.46524h27.58175v-2.27807H214.289v-29.615Zm-4.9828-8.88984c1.02561,1.90211,1.74043,3.17018,3.01469,5.47273H214.289ZM94.41445,178.18717H66.8327V154.26738h7.983c3.10792-.75178,6.83742-.051,8.79541-3.35466l1.4918-2.34053h9.05851a6.383,6.383,0,0,0,.253.71157Zm-7.75759-31.89305,3.85381-6.54056c1.61613,4.70519,1.6472,4.73858,2.26878,6.54056ZM94.41444,124.03a4.46336,4.46336,0,0,0-6.48424,1.69374c-4.112,6.94431-6.73728,11.38189-10.84924,18.29234l-.18978.10162a1.028,1.028,0,0,1,.18978-.10162H66.8327v-27.3369H94.41445Zm0-9.62889H66.8327V84.7861H94.41445Zm2.12169,2.27807h25.99641c-2.08224,9.01068-3.97519,17.24224-6.30981,27.3369-.0631.03387-.1262.10162-.1893.13551.0631-.03387.09465-.10162.1893-.13551H102.1203c.09465.06776.15775.13551.22085.16938a.9621.9621,0,0,0-.22085-.16938c-2.27153-6.60557-3.40729-9.85753-5.58418-16.12435Zm19.677,26.49168a.43369.43369,0,0,1-.12431.10011C116.151,143.23757,116.21317,143.20419,116.21317,143.17082Zm-.7459.63405c-.03108.03336-.03108.03336-.06216.03336A.10656.10656,0,0,0,115.46727,143.80487Zm8.6506,33.24326H96.53612V152.38751a4.7476,4.7476,0,0,0,4.0487.36707c6.2312.03336,12.0512.10011,18.28239.13349a4.7096,4.7096,0,0,0,5.25066-2.40266Zm0-66.54823c-.3163,1.323-.601,2.646-.91728,3.90117H96.53612V84.7861h27.58175Zm9.84153-3.507c3.23224-14.0155,1.11886-4.83868,4.35109-18.85418l1.83367,11.57948c.777,4.90542,1.52289,9.77747,2.29987,14.6829H132.25C132.80947,111.93167,133.4,109.46228,133.95939,106.99287ZM126.23954,84.7861h3.35655l-3.35655,14.516Zm0,56.62307q2.84349-12.365,5.71856-24.73h11.4055l4.64435,29.615H126.23954Zm0,36.778v-29.615h22.21073c.75827,4.74925,1.48493,9.4985,2.24318,14.21383.82144,5.1224,1.6113,10.27873,2.43276,15.40115H126.23954Zm26.52092-56.06866c-.27972-1.802-.55943-3.63735-.87022-5.43935h.87022Zm-.03163-7.71742h-1.29535c-1.169-7.42918-2.338-14.89229-3.50695-22.32148-.37914-2.44248-.75827-4.851-1.13739-7.29349h5.97132v29.615Zm8.73564,60.83393a1.42382,1.42382,0,0,0,.34187.03336,1.30142,1.30142,0,0,1-.34187-.03336c-1.83368-11.57948-1.30533-8.37592-3.139-19.9554-.34186-2.23581-.71482-4.47162-1.0567-6.70741h16.31658c-5.3767,11.81307-6.12261,13.4482-12.12089,26.66283Zm20.99943,1.81313H170.4897c3.55822-7.84037,7.05456-15.51464,10.86031-23.91979.03093-.09966.03093-.03321,0,0h1.11387v23.91979Zm.0316-33.03209h-3.72839a4.79725,4.79725,0,0,0-4.01834,2.27808H156.168c-.41791-2.72681-.868-5.45359-1.28587-8.14587V116.67914h27.58175V144.016Zm-.03162-29.615H154.88213V84.7861h27.58175v29.615Zm29.67185,63.7861H184.58555V153.12834h11.47008c1.67828.38726,3.66734.65422,5.15914-.28015,1.30533-.80089,2.17554-2.60287,2.98359-3.90432a3.59415,3.59415,0,0,1,.34187-.37168h7.62707v29.615Zm.06264-31.89305h-6.1226c.49726-.83426,1.02561-1.63515,1.52289-2.46941,2.57956-4.10453,1.92691-3.57062,4.50648-7.70851,0-.03337.03107-.03337.03107-.06675,0,.03336-.03107.03336-.03107.06675-.12433.267-.06216.40044.06216.46719v9.71073Zm-.03105-24.60151a4.98694,4.98694,0,0,0-3.764,2.439c-4.6813,7.45245-7.81272,12.432-12.4624,19.88445H184.58555v-27.3369H212.1673v5.01346Zm0-7.29154H184.58555V84.7861H212.1673Z" style="fill: #13227a"/>
        </g>
        <g>
          <path d="M75.76087,2H39.23913c-5.0426,0-9.13043,4.43238-9.13043,9.9V24.275h7.98913V15.6125a4.7693,4.7693,0,0,1,4.56521-4.95H72.337a4.7693,4.7693,0,0,1,4.56521,4.95V24.275H84.8913V11.9C84.8913,6.43238,80.80347,2,75.76087,2Z" style="fill: #575072"/>
          <path d="M14.13043,24.275h86.73914c5.0426,0,9.13043,4.43238,9.13043,9.9V91.1c0,5.46762-4.08783,9.9-9.13043,9.9H14.13043C9.08783,101,5,96.56762,5,91.1V34.175C5,28.70738,9.08783,24.275,14.13043,24.275Z" style="fill: #eaeaea"/>
          <path d="M75.76087,2H39.23913c-5.0426,0-9.13043,4.43238-9.13043,9.9V24.275h7.98913V15.6125a4.7693,4.7693,0,0,1,4.56521-4.95H72.337a4.7693,4.7693,0,0,1,4.56521,4.95V24.275H84.8913V11.9C84.8913,6.43238,80.80347,2,75.76087,2Z" style="fill: none;stroke: #281a3b;stroke-linecap: round;stroke-linejoin: round;stroke-width: 4px"/>
          <path d="M66.63043,73.775H76.90217a3.577,3.577,0,0,0,3.42392-3.7125h0V57.6875a3.577,3.577,0,0,0-3.42392-3.7125H66.63043V42.8375a3.577,3.577,0,0,0-3.42391-3.7125h-11.413a3.577,3.577,0,0,0-3.42391,3.7125V53.975H38.09783a3.577,3.577,0,0,0-3.42392,3.7125v12.375a3.577,3.577,0,0,0,3.42392,3.7125H48.36957V84.9125a3.577,3.577,0,0,0,3.42391,3.7125h11.413a3.577,3.577,0,0,0,3.42391-3.7125Z" style="fill: #f47c6d"/>
          <path d="M66.63043,73.775H76.90217a3.577,3.577,0,0,0,3.42392-3.7125h0V57.6875a3.577,3.577,0,0,0-3.42392-3.7125H66.63043V42.8375a3.577,3.577,0,0,0-3.42391-3.7125h-11.413a3.577,3.577,0,0,0-3.42391,3.7125V53.975H38.09783a3.577,3.577,0,0,0-3.42392,3.7125v12.375a3.577,3.577,0,0,0,3.42392,3.7125H48.36957V84.9125a3.577,3.577,0,0,0,3.42391,3.7125h11.413a3.577,3.577,0,0,0,3.42391-3.7125Z" style="fill: none;stroke: #281a3b;stroke-linecap: round;stroke-linejoin: round;stroke-width: 4px"/>
          <path d="M110,34.175c0-5.46762-4.08783-9.9-9.13043-9.9H83.75c9.45487,0,17.11957,8.31071,17.11957,18.5625v39.6C100.86957,92.68929,93.20487,101,83.75,101h17.11957C105.91217,101,110,96.56762,110,91.1Z" style="fill: #bacece"/>
          <path d="M14.13043,24.275h86.73914c5.0426,0,9.13043,4.43238,9.13043,9.9V91.1c0,5.46762-4.08783,9.9-9.13043,9.9H14.13043C9.08783,101,5,96.56762,5,91.1V34.175C5,28.70738,9.08783,24.275,14.13043,24.275Z" style="fill: none;stroke: #281a3b;stroke-linecap: round;stroke-linejoin: round;stroke-width: 4px"/>
        </g>
      </g>
    </g>
  </g>
</svg>
