<svg id="b62dd5a7-30f8-4c85-a37e-e2f69750fd52" data-name="floor_1" xmlns="http://www.w3.org/2000/svg" viewBox="0 0 976.66992 248">
  <!-- SVG logo of Minh Khoe Tue Y System (MKTY System) by DuYu (202103180009@stu.qlu.edu.cn) -->
  <!-- Copyright (c) 2024~2025 Du Yu (No.202103180009), Faculty of Computer Science and Technology, Qilu University of Technology (Shandong Academy of Sciences). -->
  <rect x="21" y="38" width="275" height="206" rx="23.94161" style="fill: none;stroke: #93278f;stroke-miterlimit: 10;stroke-width: 8px"/>
  <g>
    <path d="M279.10932,48H39.89068C28.95081,48,20,57.61063,20,69.357v170.2861C20,251.38937,28.95081,261,39.89068,261H279.10932C290.04919,261,299,251.38937,299,239.64305V69.357C299,57.61063,290.04919,48,279.10932,48ZM265.79084,239.35829H53.20916c-7.1793,0-13.05327-6.307-13.05327-14.0155V82.51817c0-7.70852,5.874-14.0155,13.05327-14.0155H265.79084c7.1793,0,13.05327,6.307,13.05327,14.0155V225.34279C278.84411,233.05131,272.97014,239.35829,265.79084,239.35829Z" transform="translate(-7 -21)" style="fill: #13227a"/>
    <path d="M239.27177,175.57219c.06217-.02874.1554.10472.21756.23821.404.76751.83914,1.50166,1.24317,2.26918,1.554,2.83647,6.99282,2.04876,6.99282,2.04876H258.667c6.14224,0,6.14224-10.25133,0-10.25133H247.24179c-4.13726-7.55181-6.87421-12.54081-11.04331-20.09262a4.88707,4.88707,0,0,0-1.90951-1.94776v-4.15749h27.58175v-2.27807H234.289v-29.615h27.58175V109.508H234.289V78.754H232.1673v30.754H204.58555V78.754h-2.12167v30.754H175.943V78.754h-2.12168v30.754h-6.96406s-2.11338-13.91968-3.20115-20.69383c-.777-5.00554-7.9252-4.57173-8.98189,0-1.554,6.77415-3.10792,13.515-4.693,20.69383h-3.74169V78.754h-2.12167v30.754H116.53612V78.754h-2.12167v30.754H86.8327V78.754H84.711v30.754H55.0076v2.27808H84.711v29.615H55.0076v2.27807H84.711V171.016H60.34058a4.1838,4.1838,0,0,0-3.8137,2.27808H55.0076v2.27807h.39967a5.75811,5.75811,0,0,0,4.50648,5.69519H84.711v23.91979H55.0076v2.27807H84.711V229.107H86.8327V207.46524h27.58175V229.107h2.12167V207.46524h27.58175V229.107h2.12167V207.46524h26.616a2.55131,2.55131,0,0,1-.09509,1.41506V229.107h2.12167v-7.67943c2.60421,2.436,7.01746,2.36928,8.416-.70077,2.11338-4.67183,6.12261-13.26149,6.12261-13.26149h13.04312V229.107h2.12167V207.46524H232.1673V229.107H234.289V207.46524h27.58175v-2.27807H234.289v-29.615Zm-4.9828-8.88984c1.02561,1.90211,1.74043,3.17018,3.01469,5.47273H234.289ZM114.41445,205.18717H86.8327V181.26738h7.983c3.10792-.75178,6.83742-.051,8.79541-3.35466l1.4918-2.34053h9.05851a6.383,6.383,0,0,0,.253.71157Zm-7.75759-31.89305,3.85381-6.54056c1.61613,4.70519,1.6472,4.73858,2.26878,6.54056ZM114.41444,151.03a4.46336,4.46336,0,0,0-6.48424,1.69374c-4.112,6.94431-6.73728,11.38189-10.84924,18.29234l-.18978.10162a1.028,1.028,0,0,1,.18978-.10162H86.8327v-27.3369h27.58175Zm0-9.62889H86.8327v-29.615h27.58175Zm2.12169,2.27807h25.99641c-2.08224,9.01068-3.97519,17.24224-6.30981,27.3369-.0631.03387-.1262.10162-.1893.13551.0631-.03387.09465-.10162.1893-.13551H122.1203c.09465.06776.15775.13551.22085.16938a.9621.9621,0,0,0-.22085-.16938c-2.27153-6.60557-3.40729-9.85753-5.58418-16.12435Zm19.677,26.49168a.43369.43369,0,0,1-.12431.10011C136.151,170.23757,136.21317,170.20419,136.21317,170.17082Zm-.7459.63405c-.03108.03336-.03108.03336-.06216.03336A.10656.10656,0,0,0,135.46727,170.80487Zm8.6506,33.24326H116.53612V179.38751a4.7476,4.7476,0,0,0,4.0487.36707c6.2312.03336,12.0512.10011,18.28239.13349a4.7096,4.7096,0,0,0,5.25066-2.40266Zm0-66.54823c-.3163,1.323-.601,2.646-.91728,3.90117H116.53612v-29.615h27.58175Zm9.84153-3.507c3.23224-14.0155,1.11886-4.83868,4.35109-18.85418l1.83367,11.57948c.777,4.90542,1.52289,9.77747,2.29987,14.6829H152.25C152.80947,138.93167,153.4,136.46228,153.95939,133.99287Zm-7.71985-22.20677h3.35655l-3.35655,14.516Zm0,56.62307q2.84349-12.365,5.71856-24.73h11.4055l4.64435,29.615H146.23954Zm0,36.778v-29.615h22.21073c.75827,4.74925,1.48493,9.4985,2.24318,14.21383.82144,5.1224,1.6113,10.27873,2.43276,15.40115H146.23954Zm26.52092-56.06866c-.27972-1.802-.55943-3.63735-.87022-5.43935h.87022Zm-.03163-7.71742h-1.29535c-1.169-7.42918-2.338-14.89229-3.50695-22.32148-.37914-2.44248-.75827-4.851-1.13739-7.29349h5.97132v29.615Zm9.48155,60.73846Zm-.74591.09547a1.42382,1.42382,0,0,0,.34187.03336,1.30142,1.30142,0,0,1-.34187-.03336c-1.83368-11.57948-1.30533-8.37592-3.139-19.9554-.34186-2.23581-.71482-4.47162-1.0567-6.70741h16.31658c-5.3767,11.81307-6.12261,13.4482-12.12089,26.66283Zm20.99943,1.81313H190.4897c3.55822-7.84037,7.05456-15.51464,10.86031-23.91979.03093-.09966.03093-.03321,0,0h1.11387v23.91979Zm.0316-33.03209h-3.72839a4.79725,4.79725,0,0,0-4.01834,2.27808H176.168c-.41791-2.72681-.868-5.45359-1.28587-8.14587V143.67914h27.58175V171.016Zm-.03162-29.615H174.88213v-29.615h27.58175v29.615Zm29.67185,63.7861H204.58555V180.12834h11.47008c1.67828.38726,3.66734.65422,5.15914-.28015,1.30533-.80089,2.17554-2.60287,2.98359-3.90432a3.59415,3.59415,0,0,1,.34187-.37168h7.62707v29.615Zm.06264-31.89305h-6.1226c.49726-.83426,1.02561-1.63515,1.52289-2.46941,2.57956-4.10453,1.92691-3.57062,4.50648-7.70851,0-.03337.03107-.03337.03107-.06675,0,.03336-.03107.03336-.03107.06675-.12433.267-.06216.40044.06216.46719v9.71073Zm-.03105-24.60151a4.98694,4.98694,0,0,0-3.764,2.439c-4.6813,7.45245-7.81272,12.432-12.4624,19.88445H204.58555v-27.3369H232.1673v5.01346Zm0-7.29154H204.58555v-29.615H232.1673Z" transform="translate(-7 -21)" style="fill: #13227a"/>
  </g>
  <g>
    <path d="M79.76087,23H43.23913c-5.0426,0-9.13043,4.92487-9.13043,11V47.75h7.98913V38.125c0-3.03757,2.04391-5.5,4.56521-5.5H76.337c2.5213,0,4.56521,2.46243,4.56521,5.5V47.75H88.8913V34C88.8913,27.92487,84.80347,23,79.76087,23Z" transform="translate(-7 -21)" style="fill: #575072"/>
    <path d="M18.13043,47.75h86.73914c5.0426,0,9.13043,4.92487,9.13043,11V122c0,6.07513-4.08783,11-9.13043,11H18.13043C13.08783,133,9,128.07513,9,122V58.75C9,52.67487,13.08783,47.75,18.13043,47.75Z" transform="translate(-7 -21)" style="fill: #eaeaea"/>
    <path d="M79.76087,23H43.23913c-5.0426,0-9.13043,4.92487-9.13043,11V47.75h7.98913V38.125c0-3.03757,2.04391-5.5,4.56521-5.5H76.337c2.5213,0,4.56521,2.46243,4.56521,5.5V47.75H88.8913V34C88.8913,27.92487,84.80347,23,79.76087,23Z" transform="translate(-7 -21)" style="fill: none;stroke: #281a3b;stroke-linecap: round;stroke-linejoin: round;stroke-width: 4px"/>
    <path d="M70.63043,102.75H80.90217c1.891,0,3.42392-1.84683,3.42392-4.125h0V84.875c0-2.27817-1.53294-4.125-3.42392-4.125H70.63043V68.375c0-2.27817-1.53293-4.125-3.42391-4.125h-11.413c-1.891,0-3.42391,1.84683-3.42391,4.125V80.75H42.09783c-1.891,0-3.42392,1.84683-3.42392,4.125v13.75c0,2.27817,1.53294,4.125,3.42392,4.125H52.36957v12.375c0,2.27817,1.53293,4.125,3.42391,4.125h11.413c1.891,0,3.42391-1.84683,3.42391-4.125Z" transform="translate(-7 -21)" style="fill: #f47c6d"/>
    <path d="M70.63043,102.75H80.90217c1.891,0,3.42392-1.84683,3.42392-4.125h0V84.875c0-2.27817-1.53294-4.125-3.42392-4.125H70.63043V68.375c0-2.27817-1.53293-4.125-3.42391-4.125h-11.413c-1.891,0-3.42391,1.84683-3.42391,4.125V80.75H42.09783c-1.891,0-3.42392,1.84683-3.42392,4.125v13.75c0,2.27817,1.53294,4.125,3.42392,4.125H52.36957v12.375c0,2.27817,1.53293,4.125,3.42391,4.125h11.413c1.891,0,3.42391-1.84683,3.42391-4.125Z" transform="translate(-7 -21)" style="fill: none;stroke: #281a3b;stroke-linecap: round;stroke-linejoin: round;stroke-width: 4px"/>
    <path d="M114,58.75c0-6.07513-4.08783-11-9.13043-11H87.75c9.45487,0,17.11957,9.23413,17.11957,20.625v44c0,11.39087-7.6647,20.625-17.11957,20.625h17.11957C109.91217,133,114,128.07513,114,122Z" transform="translate(-7 -21)" style="fill: #bacece"/>
    <path d="M18.13043,47.75h86.73914c5.0426,0,9.13043,4.92487,9.13043,11V122c0,6.07513-4.08783,11-9.13043,11H18.13043C13.08783,133,9,128.07513,9,122V58.75C9,52.67487,13.08783,47.75,18.13043,47.75Z" transform="translate(-7 -21)" style="fill: none;stroke: #281a3b;stroke-linecap: round;stroke-linejoin: round;stroke-width: 4px"/>
  </g>
  <g>
    <path d="M321.48389,133.41211h1.83984c4.32373,0,4.876-1.19629,4.876-4.876V84.01025c0-4.50732-.644-5.15136-6.80762-5.24365V75.731h21.25049l16.09961,41.398h.18359l15.91553-41.398h20.33057V78.7666c-6.07129.09229-6.62354.73633-6.62354,5.24365v44.25c0,4.32373.644,5.15186,6.62354,5.15186v3.03564H368.40137v-3.03564c5.88769,0,6.34765-.91992,6.34765-5.15186V85.6665h-.18408l-18.6748,49.49317h-4.59961L332.24707,86.21826h-.18359v42.31787c0,4.04785.644,4.876,5.05957,4.876h2.75976v3.03564H321.48389Z" transform="translate(-7 -21)"/>
    <path d="M401.03955,134.33594c4.352,0,4.67188-.51221,4.67188-3.584V100.03418c0-3.19971-.51221-3.71143-4.67188-3.71143V94.21094h19.00684v2.11181c-4.15967,0-4.60791.51172-4.60791,3.71143V130.752c0,3.2002.44824,3.584,4.60791,3.584v2.11181H401.03955Z" transform="translate(-7 -21)"/>
    <path d="M432.07861,102.082h-.12793V131.0083c0,2.36768.76807,3.32764,3.19971,3.32764h2.24023v2.11181H424.59131v-2.11181h1.66406c2.04785,0,3.00781-1.02393,3.00781-3.32764V99.97021c0-3.13574-.44824-3.58349-4.73584-3.64746V94.21094h14.01514l19.83838,30.65381h.19189V99.39453q0-3.07178-3.26367-3.07178h-2.23974V94.21094h12.67089v2.11181h-1.53564c-1.98389,0-2.94385,1.02393-2.94385,3.07178v37.501h-6.39941Z" transform="translate(-7 -21)"/>
    <path d="M470.22314,134.33594c4.54395,0,4.60791-.7041,4.60791-3.584V100.03418c0-3.13574-.19189-3.71143-4.60791-3.71143V94.21094H489.166v2.11181c-4.48,0-4.60791.63965-4.60791,3.71143v13.05518H501.3252V100.03418c0-3.13574-.19239-3.71143-4.60743-3.71143V94.21094h18.94239v2.11181c-4.4795,0-4.60743.70362-4.60743,3.71143V130.752c0,3.00782.31934,3.584,4.60743,3.584v2.11181H496.71777v-2.11181c4.543,0,4.60743-.64014,4.60743-3.584V115.64941H484.55811V130.752c0,3.00782.25634,3.584,4.60791,3.584v2.11181H470.22314Z" transform="translate(-7 -21)"/>
    <path d="M604.66211,133.41211v3.03564h-27.9668v-3.03564h2.39258c2.85156,0,2.85156-1.564.73535-4.876l-14.44336-21.34277-2.75976,2.668v18.39892c0,4.50782.46,5.15186,6.624,5.15186v3.03564H541.92188v-3.03564c6.25488,0,6.71484-.73633,6.71484-5.15186V84.10254c0-4.59961-.55176-5.33594-6.71484-5.33594V75.731h27.32226V78.7666c-5.97949,0-6.624.73633-6.624,5.33594v20.97461l21.34277-22.17041c1.93262-2.11621,1.74805-4.14014-.91992-4.14014H580.2832V75.731h19.6875V78.7666c-5.7041,0-9.56738,3.58789-16.00781,10.02783l-9.01562,8.92334,15.45605,22.355C597.02637,129.73193,599.32617,133.41211,604.66211,133.41211Z" transform="translate(-7 -21)"/>
    <path d="M607.49316,134.33594c4.543,0,4.60743-.7041,4.60743-3.584V100.03418c0-3.13574-.19239-3.71143-4.60743-3.71143V94.21094h18.94239v2.11181c-4.4795,0-4.60743.63965-4.60743,3.71143v13.05518h16.76661V100.03418c0-3.13574-.19239-3.71143-4.60743-3.71143V94.21094h18.94239v2.11181c-4.47949,0-4.60742.70362-4.60742,3.71143V130.752c0,3.00782.31933,3.584,4.60742,3.584v2.11181H633.9873v-2.11181c4.543,0,4.60743-.64014,4.60743-3.584V115.64941H621.82812V130.752c0,3.00782.25586,3.584,4.60743,3.584v2.11181H607.49316Z" transform="translate(-7 -21)"/>
    <path d="M656.58105,115.26514c0-13.63086,7.10352-21.82227,21.11817-21.82227s21.18262,8.19141,21.18262,21.82227c0,13.63134-7.168,21.88672-21.18262,21.88672S656.58105,128.89648,656.58105,115.26514Zm31.86915,0c0-12.79883-3.39161-19.51856-10.68653-19.51856-7.67969,0-10.6875,6.71973-10.6875,19.51856,0,12.86328,3.00781,19.58252,10.6875,19.58252C685.44238,134.84766,688.4502,128.12842,688.4502,115.26514Z" transform="translate(-7 -21)"/>
    <path d="M702.46973,134.33594c4.22363,0,4.67089-.51221,4.67089-3.584V99.97021c0-3.1997-.51171-3.64746-4.67089-3.64746V94.21094h33.21289v10.30322h-2.23926c-1.53613-6.33545-3.3916-7.87158-9.53516-7.87158h-4.67187c-1.85645,0-2.36817.51221-2.36817,2.17578v14.14307h7.10352c3.83984,0,4.54394-1.15186,5.18359-5.69581h1.91993v14.207h-1.91993c-.57617-4.60743-1.34375-5.69532-5.18359-5.69532h-7.10352V129.792c0,3.584.44825,4.22412,6.97559,4.22412,6.5918,0,9.72754-1.91992,11.26367-8.95947h2.23926l-.76758,11.39111H702.46973Z" transform="translate(-7 -21)"/>
    <path d="M774.16309,133.41211c6.71582,0,7.17578-.55225,7.17578-5.06006V78.95068h-4.32422c-7.26758,0-10.94727,3.86377-12.32715,12.8794h-3.21973l.0918-16.09912h53.541V91.83008h-3.127c-1.83984-10.02735-5.6123-12.8794-12.78808-12.8794h-3.86328v49.40137c0,4.50781.73535,5.06006,7.17578,5.06006v3.03564h-28.335Z" transform="translate(-7 -21)"/>
    <path d="M823.66211,122.11279V99.97021c0-3.13574-.32031-3.64746-4.60742-3.64746V94.21094h19.00586v2.11181c-4.22364,0-4.6709.44776-4.6709,3.64746v22.46241c0,8.06347,2.30371,12.03125,8.127,12.03125,5.8877,0,8.25586-3.96778,8.25586-12.03125V99.97021c0-3.1997-.44824-3.64746-4.67187-3.64746V94.21094h18.87793v2.11181c-4.35157,0-4.60743.51172-4.60743,3.64746v22.14258c0,10.43116-5.375,15.103-17.98242,15.103C828.90918,137.21582,823.66211,132.60791,823.66211,122.11279Z" transform="translate(-7 -21)"/>
    <path d="M866.99121,134.33594c4.22363,0,4.6709-.51221,4.6709-3.584V99.97021c0-3.1997-.51172-3.64746-4.6709-3.64746V94.21094H900.2041v10.30322h-2.23926c-1.53613-6.33545-3.3916-7.87158-9.53515-7.87158h-4.67188c-1.85644,0-2.36816.51221-2.36816,2.17578v14.14307h7.10351c3.83985,0,4.54395-1.15186,5.1836-5.69581h1.91992v14.207h-1.91992c-.57617-4.60743-1.34375-5.69532-5.1836-5.69532h-7.10351V129.792c0,3.584.44824,4.22412,6.97558,4.22412,6.5918,0,9.72754-1.91992,11.26368-8.95947h2.23925l-.76757,11.39111H866.99121Z" transform="translate(-7 -21)"/>
    <path d="M983.66992,75.731V78.7666c-4.7832,0-6.16308,1.564-8.37109,5.8877l-13.8916,27.41455V128.168c0,4.6001.82812,5.24414,7.36035,5.24414v3.03564H940.52441v-3.03564c6.624,0,7.084-.82813,7.084-5.24414V113.08105L932.79688,83.3667c-1.74805-3.40381-2.75977-4.6001-7.63575-4.6001V75.731h28.70313V78.7666H949.9082c-2.208,0-3.12793,1.19629-1.56445,4.6001l11.31543,23.91846h.18457l10.76367-23.09082c1.74707-3.77149,0-5.42774-2.208-5.42774h-3.40429V75.731Z" transform="translate(-7 -21)"/>
    <path d="M344.70117,185.34277c-1.15576-3.94336-2.7876-9.31445-9.38281-9.31445-4.89551,0-7.34326,3.19531-7.34326,7.61523,0,5.71094,4.14746,7.95508,8.56689,10.19825,2.99219,1.49609,11.355,4.41992,11.355,12.91894,0,7.07129-5.43945,12.1709-14.00635,12.30664a27.87437,27.87437,0,0,1-6.86718-1.08789,12.72477,12.72477,0,0,1-2.92383-1.292,79.76951,79.76951,0,0,1-1.63184-10.74219h1.08789c1.08789,3.67188,4.01172,11.35449,11.9668,11.35449,5.23535,0,8.43115-2.85546,8.43115-8.83886,0-6.86719-5.57568-9.17969-9.1792-11.21875-.61181-.33985-10.60693-3.53614-10.60693-11.83106,0-5.64355,4.62354-10.94726,12.647-10.94726a22.76016,22.76016,0,0,1,7.95508,1.42871c.272,2.31152.61182,4.82715,1.08789,9.45019Z" transform="translate(-7 -21)"/>
    <path d="M351.84375,217.0957c4.89551-.33984,5.7793-1.292,5.7793-5.57519V198.126c0-4.55567-.272-4.82715-4.4878-5.64356v-.88379c2.856-.6123,5.64356-1.292,7.81934-2.85547V194.25c7.00342-4.89551,8.83936-5.23535,10.811-5.23535a8.209,8.209,0,0,1,7.13917,5.50781c7.95507-5.30371,9.92724-5.50781,11.28662-5.50781a7.8523,7.8523,0,0,1,8.22754,8.22754v13.93847c0,4.96387.67968,5.64356,4.75927,5.915v.95215H389.376v-.95215c4.75927-.27148,5.77929-1.15527,5.77929-6.05078V200.4375c0-4.2832-1.08789-8.43066-7.07129-8.43066-2.856.13574-5.91552,1.90332-8.63525,3.94336.06787.95214.2041,1.70019.2041,2.10742v13.123c0,4.62305.74756,5.64356,4.75928,5.915v.95215H370.47363v-.95215c5.09961-.27148,5.91553-1.292,5.91553-5.915V200.166c0-4.41993-1.292-8.15918-7.20752-8.15918-3.19531,0-6.11914,2.37988-8.29492,4.01074v15.16308c0,4.62305.67969,5.64356,4.41943,5.915v.95215h-13.4624Z" transform="translate(-7 -21)"/>
    <path d="M426.98145,218.7959a6.06519,6.06519,0,0,1-2.17579-1.22363,6.67789,6.67789,0,0,1-1.49609-3.19629c-2.65186,2.04-5.71143,4.41992-8.22705,4.41992a7.65256,7.65256,0,0,1-7.88721-7.751c0-3.06054,2.10742-5.23633,6.79932-6.66406a52.44633,52.44633,0,0,0,9.31494-3.60352c0-3.33105-.06787-9.24707-6.1875-9.24707-1.08789.06836-4.75928.33985-5.915,5.7793a1.50369,1.50369,0,0,1-1.49609,1.15625,2.25339,2.25339,0,0,1-2.04-2.31152,3.08123,3.08123,0,0,1,1.9043-2.44825c1.6997-1.15527,6.25488-3.94335,9.58691-4.6914,3.33154,0,7.54687,2.17578,7.54687,8.15918V211.793c0,2.78711,1.02,3.875,2.44825,3.875a5.758,5.758,0,0,0,2.99121-.88379l.6123,1.15625Zm-3.67188-16.31836c-1.42773.81543-5.71143,2.44726-7.207,3.05957-3.06006,1.15625-4.89551,2.44727-4.89551,4.96387a5.26694,5.26694,0,0,0,5.30322,5.37109,10.196,10.196,0,0,0,6.79932-3.46777Z" transform="translate(-7 -21)"/>
    <path d="M435.07471,217.0957c4.14746-.27148,4.82763-1.22363,4.82763-5.50683V198.26172c0-4.96289-.47607-5.3711-4.6914-5.84766v-.81543a23.76443,23.76443,0,0,0,7.95508-2.85547v8.29493h.13574c1.63183-3.67188,5.30371-8.02344,8.63525-8.02344a3.33751,3.33751,0,0,1,3.33154,2.85547,2.75549,2.75549,0,0,1-2.37988,2.5166.595.595,0,0,1-.61181-.34082c-1.02-.95117-1.564-1.42774-2.85547-1.42774-1.83594,0-4.4878,3.05957-6.25537,8.02344v11.083c0,4.21582.61181,5.09961,6.05127,5.37109v.95215H435.07471Z" transform="translate(-7 -21)"/>
    <path d="M470.84131,218.04785a5.03955,5.03955,0,0,1-2.7876.748c-3.80762,0-5.64355-2.71973-5.64355-7.34375V191.93848h-4.89551l-.2041-.74805,1.83593-1.42773h3.26368v-3.73926l2.31152-4.624.95215-.06738v8.43067H473.833a1.81491,1.81491,0,0,1,.2041.81542,1.76653,1.76653,0,0,1-.68018,1.36036h-7.6831v17.67871c0,5.50683,1.83594,6.66308,4.07959,6.66308a9.34113,9.34113,0,0,0,4.6914-1.36035l.54395,1.02051Z" transform="translate(-7 -21)"/>
    <path d="M501.44043,194.52246h28.69238V183.23535c0-5.30371-.543-6.32324-6.39062-6.7998v-.95117h16.4541v.95117c-5.9834.47656-6.52734,1.49609-6.52734,6.7998v27.06153c0,5.37109.54394,6.39062,6.32324,6.79882v.95215H523.19824v-.95215c6.3916-.4082,6.93457-1.42773,6.93457-6.79882v-13.667H501.44043v13.667c0,5.37109.61133,6.39062,6.59473,6.79882v.95215H491.64941v-.95215c5.71094-.4082,6.25489-1.42773,6.25489-6.79882V183.23535c0-5.30371-.54395-6.32324-6.52735-6.7998v-.95117h16.31836v.95117c-5.64355.47656-6.25488,1.49609-6.25488,6.7998Z" transform="translate(-7 -21)"/>
    <path d="M568.55469,212.88086c-4.01074,4.623-8.63477,5.915-10.19824,5.915-8.02344,0-12.98731-6.3916-12.98731-13.59863,0-9.99512,8.15918-16.18262,13.667-16.18262a9.95037,9.95037,0,0,1,10.06348,9.58691c0,1.36035-.06836,1.56446-1.15625,1.76758-1.08789.2041-9.791.95215-19.17383,1.22461-.06836,10.335,6.11914,14.00586,10.81055,14.00586,2.31152,0,4.75976-.47559,8.22754-3.73926ZM549.17676,199.418c1.56445,0,11.15136-.13672,14.07519-.2041,1.69922,0,1.69922-.67969,1.69922-1.08789,0-3.80762-2.85547-7.207-7.751-7.207C553.80078,190.919,550.19727,193.91016,549.17676,199.418Z" transform="translate(-7 -21)"/>
    <path d="M593.375,218.7959a6.06924,6.06924,0,0,1-2.17578-1.22363,6.6869,6.6869,0,0,1-1.4961-3.19629c-2.65136,2.04-5.71093,4.41992-8.22656,4.41992a7.65327,7.65327,0,0,1-7.88769-7.751c0-3.06054,2.1084-5.23633,6.7998-6.66406a52.40794,52.40794,0,0,0,9.31445-3.60352c0-3.33105-.06738-9.24707-6.18652-9.24707-1.08789.06836-4.75976.33985-5.916,5.7793a1.50292,1.50292,0,0,1-1.49512,1.15625,2.25339,2.25339,0,0,1-2.04-2.31152,3.08,3.08,0,0,1,1.90332-2.44825c1.7002-1.15527,6.25586-3.94335,9.58691-4.6914,3.332,0,7.54786,2.17578,7.54786,8.15918V211.793c0,2.78711,1.01953,3.875,2.44726,3.875a5.76162,5.76162,0,0,0,2.99219-.88379l.61133,1.15625Zm-3.67188-16.31836c-1.42773.81543-5.71093,2.44726-7.207,3.05957-3.05957,1.15625-4.8955,2.44727-4.8955,4.96387a5.2676,5.2676,0,0,0,5.30371,5.37109,10.1959,10.1959,0,0,0,6.79882-3.46777Z" transform="translate(-7 -21)"/>
    <path d="M600.38086,217.0957c4.35156-.27148,5.03125-1.22363,5.03125-5.43945V179.83594c0-4.69141-.54395-5.168-4.89551-5.57617v-.81543a27.3276,27.3276,0,0,0,8.15918-2.31153v40.52344c0,4.21582.61231,5.168,5.09961,5.43945v.95215H600.38086Z" transform="translate(-7 -21)"/>
    <path d="M629.75586,218.04785a5.04286,5.04286,0,0,1-2.78809.748c-3.80761,0-5.64355-2.71973-5.64355-7.34375V191.93848h-4.89551l-.2041-.74805,1.83594-1.42773h3.26367v-3.73926l2.31152-4.624.95215-.06738v8.43067h8.15918a1.81491,1.81491,0,0,1,.2041.81542,1.76747,1.76747,0,0,1-.67969,1.36036h-7.68359v17.67871c0,5.50683,1.83594,6.66308,4.08008,6.66308a9.34475,9.34475,0,0,0,4.69141-1.36035l.54394,1.02051Z" transform="translate(-7 -21)"/>
    <path d="M634.85645,217.0957c4.14746-.27148,4.8955-1.292,4.8955-5.50683v-31.957c0-4.28418-.4082-4.55567-5.09961-5.43946v-.748a47.633,47.633,0,0,0,8.36328-2.31153V194.25c2.71973-2.85547,6.59571-5.23535,10.60743-5.23535,5.23535,0,9.11133,3.39941,9.11133,11.21875v11.35547c0,4.2832.74707,5.23535,4.89453,5.50683v.95215H654.30273v-.95215c4.55567-.27148,5.168-1.292,5.168-5.915v-9.31543c0-6.39062-1.90429-9.791-8.36328-9.791a11.18333,11.18333,0,0,0-8.0918,3.94336v15.16308c0,4.62305.67969,5.64356,5.37208,5.915v.95215H634.9248Z" transform="translate(-7 -21)"/>
    <path d="M696.80176,211.92871c-2.85547,3.80762-7.54785,6.86719-11.627,6.86719a13.21577,13.21577,0,0,1-13.53027-13.123c0-12.64648,12.03418-16.6582,16.86231-16.6582,1.835,0,7.27441,1.15625,7.27441,3.332a2.81493,2.81493,0,0,1-2.31152,2.37988c-.27149,0-.54395-.2041-.95215-.54394-2.37891-1.83594-4.623-2.44824-8.09082-2.44824-4.0791,0-9.11133,3.19531-9.11133,11.083.06836,9.72266,7.00391,12.78223,11.42285,12.78223,3.26367,0,5.64356-.81543,9.24707-4.62305Z" transform="translate(-7 -21)"/>
    <path d="M720.3291,218.7959a6.07714,6.07714,0,0,1-2.17578-1.22363,6.67728,6.67728,0,0,1-1.49512-3.19629c-2.65234,2.04-5.71191,4.41992-8.22754,4.41992a7.65327,7.65327,0,0,1-7.88769-7.751c0-3.06054,2.1084-5.23633,6.7998-6.66406a52.45355,52.45355,0,0,0,9.31543-3.60352c0-3.33105-.06836-9.24707-6.1875-9.24707-1.08789.06836-4.75976.33985-5.916,5.7793a1.50325,1.50325,0,0,1-1.4961,1.15625,2.25334,2.25334,0,0,1-2.03906-2.31152,3.08,3.08,0,0,1,1.90332-2.44825c1.7002-1.15527,6.25586-3.94335,9.58692-4.6914,3.332,0,7.54785,2.17578,7.54785,8.15918V211.793c0,2.78711,1.01953,3.875,2.44726,3.875a5.76162,5.76162,0,0,0,2.99219-.88379l.61133,1.15625Zm-3.6709-16.31836c-1.42871.81543-5.71191,2.44726-7.208,3.05957-3.05958,1.15625-4.89551,2.44727-4.89551,4.96387a5.267,5.267,0,0,0,5.30371,5.37109,10.20027,10.20027,0,0,0,6.7998-3.46777Z" transform="translate(-7 -21)"/>
    <path d="M728.42285,217.0957c4.14746-.27148,4.82715-1.22363,4.82715-5.50683V198.26172c0-4.96289-.47559-5.3711-4.69141-5.84766v-.81543a23.75669,23.75669,0,0,0,7.95508-2.85547v8.29493h.13672c1.63184-3.67188,5.30273-8.02344,8.63477-8.02344a3.33766,3.33766,0,0,1,3.332,2.85547,2.75594,2.75594,0,0,1-2.37989,2.5166.59448.59448,0,0,1-.6123-.34082c-1.01953-.95117-1.56348-1.42774-2.85547-1.42774-1.83594,0-4.4873,3.05957-6.25586,8.02344v11.083c0,4.21582.61231,5.09961,6.05176,5.37109v.95215H728.42285Z" transform="translate(-7 -21)"/>
    <path d="M775.06836,212.88086c-4.01172,4.623-8.63574,5.915-10.19922,5.915-8.02344,0-12.9873-6.3916-12.9873-13.59863,0-9.99512,8.15918-16.18262,13.667-16.18262a9.94948,9.94948,0,0,1,10.0625,9.58691c0,1.36035-.06738,1.56446-1.15528,1.76758-1.08789.2041-9.791.95215-19.17382,1.22461-.06836,10.335,6.11914,14.00586,10.81054,14.00586,2.31153,0,4.75977-.47559,8.22754-3.73926ZM755.68945,199.418c1.56446,0,11.15137-.13672,14.0752-.2041,1.69922,0,1.69922-.67969,1.69922-1.08789,0-3.80762-2.85547-7.207-7.751-7.207C760.31348,190.919,756.71,193.91016,755.68945,199.418Z" transform="translate(-7 -21)"/>
    <path d="M817.22656,185.34277c-1.15527-3.94336-2.78711-9.31445-9.38281-9.31445-4.89551,0-7.34375,3.19531-7.34375,7.61523,0,5.71094,4.14844,7.95508,8.56738,10.19825,2.99219,1.49609,11.35547,4.41992,11.35547,12.91894,0,7.07129-5.43945,12.1709-14.00683,12.30664a27.87045,27.87045,0,0,1-6.86719-1.08789,12.73575,12.73575,0,0,1-2.92383-1.292,79.84947,79.84947,0,0,1-1.63184-10.74219h1.08789c1.0879,3.67188,4.01172,11.35449,11.9668,11.35449,5.23535,0,8.43067-2.85546,8.43067-8.83886,0-6.86719-5.5752-9.17969-9.17872-11.21875-.6123-.33985-10.60644-3.53614-10.60644-11.83106,0-5.64355,4.62305-10.94726,12.64648-10.94726a22.76364,22.76364,0,0,1,7.95508,1.42871c.27149,2.31152.61133,4.82715,1.08789,9.45019Z" transform="translate(-7 -21)"/>
    <path d="M823.00977,189.7627h12.44238v.95214c-2.37988.47559-3.53516.88379-3.53516,2.24317a4.04576,4.04576,0,0,0,.47559,1.70019l7.34375,18.08594c1.01953-2.10742,7.61523-16.0459,7.61523-19.44531,0-1.76856-1.15625-2.17578-3.94433-2.584v-.95214h12.71484v.95214c-3.80762.47559-4.0791,1.292-6.1875,4.89551-2.04,3.46777-4.4873,9.043-10.13086,20.66992-4.96387,10.19825-6.79883,14.07422-7.751,17.67774a1.878,1.878,0,0,1-1.97168,1.36035,3.05118,3.05118,0,0,1-3.05957-2.78809c0-.95215.74805-1.42773,1.69922-2.10742,4.96387-3.39941,8.36328-12.375,8.36328-13.12305,0-.81542-4.01171-12.03418-7.88671-21.418-1.4961-3.46778-1.97266-4.48731-6.1875-5.167Z" transform="translate(-7 -21)"/>
    <path d="M857.48438,208.80078c1.292,4.35156,4.35156,8.499,8.499,8.499,2.85644,0,5.43945-1.63183,5.43945-5.37109,0-3.60351-2.31152-5.37207-5.64355-6.73144-4.28321-1.63184-8.09082-3.876-8.09082-8.15918,0-4.21582,3.80761-8.09082,9.72265-8.02344a12.41075,12.41075,0,0,1,5.30371,1.08789,49.2481,49.2481,0,0,1,1.292,6.86719l-.95215.4082c-1.15528-3.39941-3.67188-6.86719-7.13867-6.86719a4.74132,4.74132,0,0,0-5.03223,5.03125c0,3.332,3.332,4.96387,6.05176,6.05176,4.75976,1.83594,8.09082,4.2832,8.09082,8.70313,0,5.43945-4.96289,8.499-10.19825,8.499-3.53613,0-6.3916-1.22363-7.34374-2.24414-.47559-1.08789-.81543-5.23535-1.01954-7.41114Z" transform="translate(-7 -21)"/>
    <path d="M891.6875,218.04785a5.04286,5.04286,0,0,1-2.78809.748c-3.80761,0-5.64355-2.71973-5.64355-7.34375V191.93848h-4.89551l-.2041-.74805,1.83594-1.42773h3.26367v-3.73926l2.31152-4.624.95215-.06738v8.43067h8.15918a1.81491,1.81491,0,0,1,.2041.81542,1.76747,1.76747,0,0,1-.67969,1.36036h-7.68359v17.67871c0,5.50683,1.83594,6.66308,4.08008,6.66308a9.34475,9.34475,0,0,0,4.69141-1.36035l.54394,1.02051Z" transform="translate(-7 -21)"/>
    <path d="M921.40234,212.88086c-4.01172,4.623-8.63574,5.915-10.19922,5.915-8.02343,0-12.9873-6.3916-12.9873-13.59863,0-9.99512,8.15918-16.18262,13.667-16.18262a9.94947,9.94947,0,0,1,10.0625,9.58691c0,1.36035-.06738,1.56446-1.15527,1.76758-1.08789.2041-9.791.95215-19.17383,1.22461-.06836,10.335,6.11914,14.00586,10.81055,14.00586,2.31152,0,4.75976-.47559,8.22754-3.73926ZM902.02344,199.418c1.56445,0,11.15136-.13672,14.07519-.2041,1.69922,0,1.69922-.67969,1.69922-1.08789,0-3.80762-2.85547-7.207-7.751-7.207C906.64746,190.919,903.044,193.91016,902.02344,199.418Z" transform="translate(-7 -21)"/>
    <path d="M925.00781,217.0957c4.89551-.33984,5.7793-1.292,5.7793-5.57519V198.126c0-4.55567-.27149-4.82715-4.48731-5.64356v-.88379c2.85547-.6123,5.64356-1.292,7.81934-2.85547V194.25c7.00293-4.89551,8.83887-5.23535,10.81055-5.23535a8.21015,8.21015,0,0,1,7.13965,5.50781c7.95507-5.30371,9.92675-5.50781,11.28711-5.50781a7.852,7.852,0,0,1,8.22656,8.22754v13.93847c0,4.96387.68066,5.64356,4.75976,5.915v.95215H962.54v-.95215c4.75976-.27148,5.7793-1.15527,5.7793-6.05078V200.4375c0-4.2832-1.08789-8.43066-7.07129-8.43066-2.85547.13574-5.915,1.90332-8.63477,3.94336.06836.95214.2041,1.70019.2041,2.10742v13.123c0,4.62305.74805,5.64356,4.75977,5.915v.95215H943.63867v-.95215c5.09863-.27148,5.915-1.292,5.915-5.915V200.166c0-4.41993-1.292-8.15918-7.207-8.15918-3.19629,0-6.12012,2.37988-8.2959,4.01074v15.16308c0,4.62305.68067,5.64356,4.41992,5.915v.95215H925.00781Z" transform="translate(-7 -21)"/>
  </g>
  <g>
    <path d="M288.28271,61.88574l-.01171.042-.002.0127.00147.01514.00049.00244-.0044.00488-.00342-.00439.00049-.00293.002-.01368-.00439-.00634-.00928-.001v-.00146c.01075,0,.01319-.001.01514-.00684l.01416-.041Zm-.03076.00977c.01319.00293.01612.00586.01612.01025l-.00293.00488-.00244-.00244a.01883.01883,0,0,0-.01075-.01172Zm.00586-.02344c.0127.00293.01758.00537.01758.01025l-.00293.00489-.00293-.00293a.02284.02284,0,0,0-.01221-.01123Zm.09375.083-.00927.0039-.001.00049-.00147-.00049a.06839.06839,0,0,1-.02734-.03418l-.00928.00782v.023l.01416-.00586.00049.00146a.083.083,0,0,0-.01855.0127l-.001.00049-.00049-.00049-.00293-.0044.00342-.00439v-.01856a.16252.16252,0,0,1-.02393.0166l-.001-.00146a.238.238,0,0,0,.03857-.03369l.00537.00391.00049.00048-.001.00049-.00293.001.00733.01269.01465-.0122.00439.0039v.001l-.00049.00049-.01709.00781a.0425.0425,0,0,0,.02881.0166Zm-.00342-.07422.00147.00146-.00147.00049H288.291l-.00733.00147-.00293-.00391.00781.00049h.04932l.00391-.00586Zm-.04248.00928.00049.001-.00049.00049-.00439.002-.01953.01709-.001-.00146a.1541.1541,0,0,0,.01953-.02344Zm.01416.01123c.01368.00781.01514.01123.01514.01416l-.00342.00439-.00244-.00293-.001-.00342-.01123.00147a.06456.06456,0,0,0-.021.00439h-.00049l-.001-.00048-.00293-.00538.0083-.00488.01319-.0166.00488.00391.00049.001-.001.00049-.00439.00342-.01514.01269.0293-.002-.00781-.00879Zm-.01464-.03565c.01025.00342.01416.00635.01416.01026l-.00293.00439-.00342-.00391-.0083-.00927Zm.0205.021c.00782.0039.01905.01074.01905.01807l-.00293.0039-.00342-.00342a.03625.03625,0,0,0-.01367-.01757Z" transform="translate(-7 -21)"/>
    <path d="M288.38281,61.88574l-.01172.042-.00195.0127.00147.01514.00048.00244-.0039.00488-.00391-.00439.00049-.00293.002-.01368-.00439-.00634-.00928-.001v-.00146c.01074,0,.01318-.001.01514-.00684l.01416-.041Zm-.03076.00977c.01318.00293.01611.00586.01611.01025l-.00293.00488-.00244-.00244a.01878.01878,0,0,0-.01074-.01172Zm.00586-.02344c.0127.00293.01758.00537.01758.01025l-.00293.00489-.00293-.00293a.02292.02292,0,0,0-.01221-.01123Zm.09375.083-.00928.0039-.001.00049-.00147-.00049a.06839.06839,0,0,1-.02734-.03418l-.00928.00782v.023l.01416-.00586.00049.00146a.08315.08315,0,0,0-.01856.0127l-.001.00049-.00049-.00049-.00293-.0044.00342-.00439v-.01856a.16305.16305,0,0,1-.02393.0166l-.001-.00146a.23845.23845,0,0,0,.03857-.03369l.00537.00391.00049.00048-.001.00049-.00293.001.00782.01269.01416-.0122.00439.0039v.001l-.00049.00049-.01709.00781a.04248.04248,0,0,0,.02881.0166Zm-.00342-.07422.00147.00146-.00147.00049h-.05713l-.00732.00147-.00293-.00391.00781.00049h.04932l.0039-.00586Zm-.04248.00928.00049.001-.00049.00049-.00439.002-.01953.01709-.001-.00146a.1547.1547,0,0,0,.01953-.02344Zm.01416.01123c.01367.00781.01514.01123.01514.01416l-.00342.00439-.00244-.00293-.001-.00342-.01123.00147a.06083.06083,0,0,0-.021.00439h-.00049l-.001-.00048-.00293-.00538.0083-.00488.01319-.0166.00488.00391.00049.001-.001.00049-.00439.00342-.01563.01269.02979-.002-.00782-.00879Zm-.01465-.03565c.01026.00342.01416.00635.01416.01026l-.00293.00439-.00341-.00391-.0083-.00927Zm.02051.021c.00781.0039.019.01074.019.01807l-.00293.0039-.00341-.00342a.03622.03622,0,0,0-.01368-.01757Z" transform="translate(-7 -21)"/>
    <path d="M288.55273,61.95215a.01463.01463,0,0,0-.01318.00537l-.00049.00049h-.00049a.06533.06533,0,0,1-.04-.04444h-.01709v.041l.022-.00928.00049.00147c-.019.01074-.02442.01465-.02588.01709l-.001.001-.001-.00048-.00488-.0044.00537-.00928v-.03711h-.01562l-.00684.001-.00293-.00391.00781.00049h.01758v-.03076l-.00049-.01514.00879.00489.001.00049-.001.001-.00341.00293v.03662h.05517l.00488-.00683.0083.00781.00049.001-.001.00048h-.04883a.05412.05412,0,0,0,.05224.03711Zm-.01953-.0752.00049.00049-.001.00049-.00976.00488-.03369.02149-.00049-.00147a.24753.24753,0,0,0,.0376-.03222Z" transform="translate(-7 -21)"/>
    <path d="M288.582,61.88965l-.01172.03515-.00293.01465.001.00879.001.00781-.0044.00538-.00293-.00489.00049-.00293.00146-.0122c0-.00391-.00048-.00879-.01171-.01026l.00048-.002.00586.00049c.00489,0,.00586-.00147.0083-.00781l.01319-.03321Zm-.0293.00293c.00977.00342.01514.00537.01514.01123l-.00244.00439-.00293-.00341a.025.025,0,0,0-.01025-.01124Zm.00977-.023c.01025.00342.01465.00586.01465.01074l-.00244.00488-.00293-.00293a.02534.02534,0,0,0-.00977-.01171Zm.08594.081.00146.002-.002.00048h-.06445l-.00733.001-.00293-.0039.00781.00048h.02833V61.8833h-.01514l-.00733.001-.00293-.00342h.04737l.00439-.00586.00635.00586.001.002-.002.00049h-.02685v.06738h.02344l.00488-.00586Z" transform="translate(-7 -21)"/>
    <path d="M288.68848,61.92969l.00048.00049-.001.00048-.00342.00147a.16064.16064,0,0,1-.03125.02832l-.001-.00147a.14771.14771,0,0,0,.02979-.03515Zm.061-.04444.001.001-.00147.00049h-.0581l-.01709.02881h.02832v-.00635l-.00049-.0127.00879.00342.00049.00049-.00049.001-.00293.00244v.01172h.02051l.00488-.00586.00732.00683.00049.001-.001.00049h-.03223v.03515c0,.00733-.00147.00879-.00879.01221h-.00049l-.00049-.001c-.00048-.00342-.00244-.00489-.01269-.00782v-.001l.01367.00146.00342-.00342V61.918h-.02735l-.00244.00244-.00146.00049h-.00049l-.00586-.00586.00733-.00586.01367-.02246h-.021l-.00732.001-.00293-.00391.00781.00049h.0249l.00977-.01856.00634.00489.00049.001-.00049.00049-.00439.00147-.00635.01074h.04444l.00537-.00684Zm-.03222.04151c.021.0122.02783.01855.02783.02539l-.00293.00488-.00391-.00537a.06709.06709,0,0,0-.022-.02344Z" transform="translate(-7 -21)"/>
    <path d="M288.85156,61.957l-.00781.00537-.002.001c-.01709,0-.03369-.00049-.04492-.00147a.02483.02483,0,0,1-.02442-.01562l-.002-.00244c-.00244,0-.00879.01074-.01123.0166l-.001.001-.00049-.00049-.00586-.00244.0166-.01661v-.03271h-.00781l-.00586.001-.00342-.00342.00782.00049h.00781l.00293-.00489.00684.00489.00048.001-.001.001-.00293.00146v.03077c0,.00732.00879.01562.02441.01611l.01074.00049c.01221,0,.02539-.001.043-.00244Zm-.09082-.085c.0044.002.01416.00879.01416.01465l-.00342.00537-.00244-.00391a.0303.0303,0,0,0-.00927-.01513Zm.05127.01709.00049.001-.001.00048h-.01318v.01612l.01221-.00684.001.00147-.01318.00879v.02539c0,.00781-.00049.00927-.00635.01172h-.00049l-.001-.00049c-.001-.00391-.00342-.00537-.00977-.00684v-.00146l.00928.00146.00342-.00439v-.02246l-.01075.0083-.001.00049-.001-.00049-.00342-.00342.01612-.00879v-.01856h-.00391l-.00732.001-.00293-.0039.00781.00048h.00635v-.00732l-.00049-.01563.00732.00391.00049.00049-.00244.00244v.01611h.00488l.00342-.00488Zm.0376.00977.001.001-.001.00049h-.0127v.02783l.00049.01856v.00049l-.00293.00293-.002.001-.001-.00293v-.001l.00049-.01954v-.02734h-.01221c0,.03125-.00244.03857-.01953.05127l-.001-.00146c.01611-.01465.01611-.02247.01611-.05469l-.00049-.02246.00586.00537.02-.00928.00488.0044.00049.00048-.00049.00049h-.002l-.00586.001-.01807.00488V61.898h.02051l.00342-.00488Z" transform="translate(-7 -21)"/>
    <path d="M288.89258,61.897l.001.00049-.001.00049-.0044.00488a.11063.11063,0,0,1-.03564.05322l-.001-.001a.12219.12219,0,0,0,.03174-.05664h-.02051l-.00732.001-.00293-.0039.00781.00049h.02246l.00293-.00489Zm.05859.05225-.00342-.00049-.00781.00293-.001.001-.001-.00049a.1064.1064,0,0,1-.03467-.0669v.06739c0,.0083-.00146.01074-.00781.01269H288.895l-.00049-.00049c-.00049-.00293-.00244-.00537-.01367-.00781v-.002l.01367.002.00391-.00439v-.07227l-.00049-.01562.00879.00439.00049.00049-.00049.001-.00342.002v.00537a.22492.22492,0,0,0,.00928.0293.17169.17169,0,0,0,.021-.02344l.00635.00635.001.001h-.002l-.00488.002-.02051.01611c.01075.02539.02393.03516.0376.03809Z" transform="translate(-7 -21)"/>
  </g>
</svg>
