<svg id="a70c7d00-3e59-4656-885e-8ad94d97f697" data-name="floor_1" xmlns="http://www.w3.org/2000/svg" viewBox="0 0 699.30371 243">
  <!-- SVG logo of Minh Khoe Tue Y System (MKTY System) by DuYu (202103180009@stu.qlu.edu.cn) -->
  <!-- Copyright (c) 2024~2025 Du Yu (No.202103180009), Faculty of Computer Science and Technology, Qilu University of Technology (Shandong Academy of Sciences). -->
  <rect x="10" y="33" width="275" height="206" rx="23.94161" style="fill: none;stroke: #ed1e79;stroke-miterlimit: 10;stroke-width: 8px"/>
  <g>
    <path d="M278.10932,48H38.89068C27.95081,48,19,57.61063,19,69.357v170.2861C19,251.38937,27.95081,261,38.89068,261H278.10932C289.04919,261,298,251.38937,298,239.64305V69.357C298,57.61063,289.04919,48,278.10932,48ZM264.79084,239.35829H52.20916c-7.1793,0-13.05327-6.307-13.05327-14.0155V82.51817c0-7.70852,5.874-14.0155,13.05327-14.0155H264.79084c7.1793,0,13.05327,6.307,13.05327,14.0155V225.34279C277.84411,233.05131,271.97014,239.35829,264.79084,239.35829Z" transform="translate(-17 -26)" style="fill: #0075f4"/>
    <path d="M238.27177,175.57219c.06217-.02874.1554.10472.21756.23821.404.76751.83914,1.50166,1.24317,2.26918,1.554,2.83647,6.99282,2.04876,6.99282,2.04876H257.667c6.14224,0,6.14224-10.25133,0-10.25133H246.24179c-4.13726-7.55181-6.87421-12.54081-11.04331-20.09262a4.88707,4.88707,0,0,0-1.90951-1.94776v-4.15749h27.58175v-2.27807H233.289v-29.615h27.58175V109.508H233.289V78.754H231.1673v30.754H203.58555V78.754h-2.12167v30.754H174.943V78.754h-2.12168v30.754h-6.96406s-2.11338-13.91968-3.20115-20.69383c-.777-5.00554-7.9252-4.57173-8.98189,0-1.554,6.77415-3.10792,13.515-4.693,20.69383h-3.74169V78.754h-2.12167v30.754H115.53612V78.754h-2.12167v30.754H85.8327V78.754H83.711v30.754H54.0076v2.27808H83.711v29.615H54.0076v2.27807H83.711V171.016H59.34058a4.1838,4.1838,0,0,0-3.8137,2.27808H54.0076v2.27807h.39967a5.75811,5.75811,0,0,0,4.50648,5.69519H83.711v23.91979H54.0076v2.27807H83.711V229.107H85.8327V207.46524h27.58175V229.107h2.12167V207.46524h27.58175V229.107h2.12167V207.46524h26.616a2.55131,2.55131,0,0,1-.09509,1.41506V229.107h2.12167v-7.67943c2.60421,2.436,7.01746,2.36928,8.416-.70077,2.11338-4.67183,6.12261-13.26149,6.12261-13.26149h13.04312V229.107h2.12167V207.46524H231.1673V229.107H233.289V207.46524h27.58175v-2.27807H233.289v-29.615Zm-4.9828-8.88984c1.02561,1.90211,1.74043,3.17018,3.01469,5.47273H233.289ZM113.41445,205.18717H85.8327V181.26738h7.983c3.10792-.75178,6.83742-.051,8.79541-3.35466l1.4918-2.34053h9.05851a6.383,6.383,0,0,0,.253.71157Zm-7.75759-31.89305,3.85381-6.54056c1.61613,4.70519,1.6472,4.73858,2.26878,6.54056ZM113.41444,151.03a4.46336,4.46336,0,0,0-6.48424,1.69374c-4.112,6.94431-6.73728,11.38189-10.84924,18.29234l-.18978.10162a1.028,1.028,0,0,1,.18978-.10162H85.8327v-27.3369h27.58175Zm0-9.62889H85.8327v-29.615h27.58175Zm2.12169,2.27807h25.99641c-2.08224,9.01068-3.97519,17.24224-6.30981,27.3369-.0631.03387-.1262.10162-.1893.13551.0631-.03387.09465-.10162.1893-.13551H121.1203c.09465.06776.15775.13551.22085.16938a.9621.9621,0,0,0-.22085-.16938c-2.27153-6.60557-3.40729-9.85753-5.58418-16.12435Zm19.677,26.49168a.43369.43369,0,0,1-.12431.10011C135.151,170.23757,135.21317,170.20419,135.21317,170.17082Zm-.7459.63405c-.03108.03336-.03108.03336-.06216.03336A.10656.10656,0,0,0,134.46727,170.80487Zm8.6506,33.24326H115.53612V179.38751a4.7476,4.7476,0,0,0,4.0487.36707c6.2312.03336,12.0512.10011,18.28239.13349a4.7096,4.7096,0,0,0,5.25066-2.40266Zm0-66.54823c-.3163,1.323-.601,2.646-.91728,3.90117H115.53612v-29.615h27.58175Zm9.84153-3.507c3.23224-14.0155,1.11886-4.83868,4.35109-18.85418l1.83367,11.57948c.777,4.90542,1.52289,9.77747,2.29987,14.6829H151.25C151.80947,138.93167,152.4,136.46228,152.95939,133.99287Zm-7.71985-22.20677h3.35655l-3.35655,14.516Zm0,56.62307q2.84349-12.365,5.71856-24.73h11.4055l4.64435,29.615H145.23954Zm0,36.778v-29.615h22.21073c.75827,4.74925,1.48493,9.4985,2.24318,14.21383.82144,5.1224,1.6113,10.27873,2.43276,15.40115H145.23954Zm26.52092-56.06866c-.27972-1.802-.55943-3.63735-.87022-5.43935h.87022Zm-.03163-7.71742h-1.29535c-1.169-7.42918-2.338-14.89229-3.50695-22.32148-.37914-2.44248-.75827-4.851-1.13739-7.29349h5.97132v29.615Zm9.48155,60.73846-.74591.09547a1.42382,1.42382,0,0,0,.34187.03336,1.30142,1.30142,0,0,1-.34187-.03336c-1.83368-11.57948-1.30533-8.37592-3.139-19.9554-.34186-2.23581-.71482-4.47162-1.0567-6.70741h16.31658c-5.3767,11.81307-6.12261,13.4482-12.12089,26.66283Zm20.99943,1.81313H189.4897c3.55822-7.84037,7.05456-15.51464,10.86031-23.91979.03093-.09966.03093-.03321,0,0h1.11387v23.91979Zm.0316-33.03209h-3.72839a4.79725,4.79725,0,0,0-4.01834,2.27808H175.168c-.41791-2.72681-.868-5.45359-1.28587-8.14587V143.67914h27.58175V171.016Zm-.03162-29.615H173.88213v-29.615h27.58175v29.615Zm29.67185,63.7861H203.58555V180.12834h11.47008c1.67828.38726,3.66734.65422,5.15914-.28015,1.30533-.80089,2.17554-2.60287,2.98359-3.90432a3.59415,3.59415,0,0,1,.34187-.37168h7.62707v29.615Zm.06264-31.89305h-6.1226c.49726-.83426,1.02561-1.63515,1.52289-2.46941,2.57956-4.10453,1.92691-3.57062,4.50648-7.70851,0-.03337.03107-.03337.03107-.06675,0,.03336-.03107.03336-.03107.06675-.12433.267-.06216.40044.06216.46719v9.71073Zm-.03105-24.60151a4.98694,4.98694,0,0,0-3.764,2.439c-4.6813,7.45245-7.81272,12.432-12.4624,19.88445H203.58555v-27.3369H231.1673v5.01346Zm0-7.29154H203.58555v-29.615H231.1673Z" transform="translate(-17 -26)" style="fill: #0075f4"/>
  </g>
  <g>
    <path d="M336.624,71.896h-1.15185v60.19189q0,.4812-1.15235,1.2959a12.46752,12.46752,0,0,1-3.07177,1.48828,13.3428,13.3428,0,0,1-4.416.67188h-1.82422V67.48Zm14.97608,2.78369H330.38379V71.896H351.6001Zm0,23.7124H330.38379v-2.688H351.6001Zm0,24.0957H330.38379V119.7041H351.6001ZM366.96,65.75195l12.28809,4.416h-1.63184v30.624a93.46058,93.46058,0,0,1-2.1123,20.87989,42.35776,42.35776,0,0,1-8.832,17.376q-6.7207,8.20825-19.77588,13.96777l-.96-.86328A49.20065,49.20065,0,0,0,365.376,120.95166a113.358,113.358,0,0,0,1.584-20.064V65.75195Zm-15.26416.57569L362.064,74.39209q-.86426,1.34546-3.936,2.11182v50.688q-.09667.48121-1.53613,1.34375a17.37933,17.37933,0,0,1-3.45557,1.53614,12.12916,12.12916,0,0,1-3.84033.67187h-1.728V71.896h-.96ZM400.272,116.728H371.18408V114.04H400.272Zm0-43.87207H371.376V70.168h28.896Zm0,21.792H371.376V91.96h28.896ZM399.6958,64.312l10.75244,8.35205a6.72823,6.72823,0,0,1-4.03222,2.01563V139.96a17.9725,17.9725,0,0,1-1.05616,6.76807,8.4926,8.4926,0,0,1-4.272,4.17578q-3.21753,1.6311-9.648,2.20752a22.392,22.392,0,0,0-.91211-4.75147,7.07483,7.07483,0,0,0-1.87207-3.02392,11.91047,11.91047,0,0,0-3.6958-2.25586,31.12572,31.12572,0,0,0-6.19189-1.584v-1.34423q12.19042.76977,14.59179.76806a1.88324,1.88324,0,0,0,2.3042-2.208V70.168h-.96Z" transform="translate(-17 -26)" style="fill: #fff"/>
    <path d="M431.76025,69.688l12.67188,5.18408h-1.728V99.73584a158.64941,158.64941,0,0,1-1.104,19.63184,58.88628,58.88628,0,0,1-5.23194,17.61621,43.5825,43.5825,0,0,1-12.28808,15.45556l-1.15186-.67187a64.928,64.928,0,0,0,7.19971-22.65576A227.68276,227.68276,0,0,0,431.76025,99.832V69.688Zm37.15186,58.752.38379,1.15186q-9.88844,8.16064-23.52,17.66406a3.5675,3.5675,0,0,1-2.01563,2.5918l-7.584-10.65577Q443.855,137.17555,468.91211,128.43994Zm44.25586-52.416q-.28712,1.53661-2.5918,1.53613H437.04v-2.688h59.52051l5.95117-8.064Q509.42285,72.47338,513.168,76.02393Zm.76758,23.8081q-.38379,1.43994-2.4961,1.43994H437.13623V98.584h65.47119l4.0332-6.52832Q511.53614,96.9519,513.93555,99.832Zm-56.54346,19.48779q3.83862,2.97657,3.83984,6.43213a4.91548,4.91548,0,0,1-1.39209,3.55176,4.67037,4.67037,0,0,1-3.5039,1.43994,6.86167,6.86167,0,0,1-3.74365-1.24756,21.96512,21.96512,0,0,0-2.97608-7.104,32.18085,32.18085,0,0,0-4.99219-6.33643l.86426-.67187Q453.55225,116.34472,457.39209,119.31982Zm36.479-6.144h-46.271l-.86426-2.688h47.13525ZM493.77539,90.04h-45.7915l-.86377-2.688h46.65527Zm-15.64746-8.16016v59.04a17.24014,17.24014,0,0,1-1.00781,6.52783,7.84885,7.84885,0,0,1-4.08008,3.88819,26.68321,26.68321,0,0,1-9.12012,1.96777,30.09988,30.09988,0,0,0-.71972-4.416,5.19517,5.19517,0,0,0-1.48829-2.5918,10.29789,10.29789,0,0,0-3.02392-2.064,21.55764,21.55764,0,0,0-5.04-1.39209v-1.248q9.5984.67309,11.42432.67187a2.245,2.245,0,0,0,1.48779-.38379,1.5918,1.5918,0,0,0,.43213-1.248V77.75195L481.584,79.19189Q481.29688,81.30494,478.12793,81.87988Zm.09619-16.416a5.07343,5.07343,0,0,1-2.49609.96V76.6001h-11.04V62.67969l14.4956,1.05615A2.91865,2.91865,0,0,1,478.22412,65.46387ZM491.04,130.6001q9.2622,7.05541,22.6084,8.97558v1.05616a9.61222,9.61222,0,0,0-4.99219,3.456,14.29534,14.29534,0,0,0-2.6875,6.43213q-12.86719-4.41723-19.53711-13.248-6.67383-8.83154-9.55176-24.67187l1.34424-.48047A36.08618,36.08618,0,0,0,491.04,130.6001Zm16.65527-8.688c-.1914,0-.73633-.06348-1.63086-.19238q-3.65039,2.40087-8.64062,5.04-4.99219,2.64184-9.59961,4.56l-1.05664-.96a92.59033,92.59033,0,0,0,6.67187-8.3042q3.50391-4.84643,5.61719-8.30371l10.65625,7.104A2.09954,2.09954,0,0,1,507.69531,121.91211ZM494.35156,82.168l9.98438,7.584a3.01333,3.01333,0,0,1-1.15235.96,6.28887,6.28887,0,0,1-2.11132.67188V114.04q0,.4812-1.48829,1.248a18.497,18.497,0,0,1-3.5996,1.34375,14.70416,14.70416,0,0,1-3.83985.57617h-1.82422v-29.856h-.86426Z" transform="translate(-17 -26)" style="fill: #fff"/>
    <path d="M543.02441,135.25586a15.53167,15.53167,0,0,1-2.1123,8.25586,12.20865,12.20865,0,0,1-5.18359,4.896,6.79542,6.79542,0,0,1-3.07227.67237,6.32375,6.32375,0,0,1-3.55176-1.0083,5.11468,5.11468,0,0,1-2.1123-2.832,5.42048,5.42048,0,0,1,1.05566-4.896A8.70279,8.70279,0,0,1,531.4082,138.04a15.916,15.916,0,0,0,5.95215-4.12793,10.594,10.594,0,0,0,2.97559-6.52832h1.34375A24.8357,24.8357,0,0,1,543.02441,135.25586Zm72.4795-24.96q-.28711,1.53661-2.5918,1.53613H527.85645l-.76856-2.78418h73.15234l5.47168-7.584Q612.14258,106.84131,615.50391,110.2959ZM569.32812,85.624l.09571,1.43994q-9.60058,2.78541-33.9834,8.064a3.64823,3.64823,0,0,1-2.49609,2.01611l-5.376-9.69629Q538.89453,87.35328,569.32812,85.624ZM568.752,72.47168q-.38524,1.53735-2.49609,1.53613H529.96777l-.76757-2.688h26.208l4.60742-5.856Q565.5835,69.68921,568.752,72.47168Zm-.57617,8.25635q-.2871,1.53661-2.49609,1.53564H531.50391L530.73633,79.48h24.96l4.416-5.376Q565.29639,78.0415,568.17578,80.728Zm23.42383,41.08789H540.24023l-.86425-2.688h52.22363Zm.09668-19.77588H541.00781l-.86328-2.688h51.55176Zm-38.208-35.42432v28.7041q0,.6731-2.87988,1.584a18.6697,18.6697,0,0,1-5.66406.91211h-1.82422V62.96777l13.53613,1.15186Q556.46288,66.23267,553.48828,66.61572Zm6.52734,64.12793v9.792q0,.96094.624,1.2002a11.13171,11.13171,0,0,0,3.02441.24023h10.752q7.39159,0,8.832-.09619a7.48116,7.48116,0,0,0,1.63183-.28808,2.3648,2.3648,0,0,0,1.05664-.76807q1.43994-1.82226,4.12793-8.832h1.05567l.28808,9.02441a7.478,7.478,0,0,1,3.07227,1.72754,3.59552,3.59552,0,0,1,.86328,2.4961,4.25956,4.25956,0,0,1-1.87207,3.648q-1.87208,1.34325-6.5752,1.92041a120.868,120.868,0,0,1-13.63281.57568H561.64844a31.69889,31.69889,0,0,1-7.87207-.71973,5.36923,5.36923,0,0,1-3.55274-2.54443,12.14663,12.14663,0,0,1-.96-5.47168V127.28809l13.72852,1.15185Q562.7036,130.36108,560.01562,130.74365Zm5.47266-7.00781a25.07567,25.07567,0,0,1,8.87988,1.34424,11.53756,11.53756,0,0,1,5.13575,3.45556,7.01308,7.01308,0,0,1,1.63183,4.32032,5.01506,5.01506,0,0,1-5.27929,5.18408,7.512,7.512,0,0,1-2.4004-.38428,33.27129,33.27129,0,0,0-5.80761-6.96,44.89461,44.89461,0,0,0-7.53614-5.90381l.67188-.76806A41.13346,41.13346,0,0,1,565.48828,123.73584Zm47.42383-34.56006q-.28857,1.53663-2.5918,1.53613h-40.7998l-.76856-2.688h30.33594l4.79981-6.04786Q609.64893,86.2959,612.91211,89.17578Zm-1.82422-16.7041q-.28712,1.53735-2.49609,1.53613h-38.208l-.76758-2.688h27.64746l4.89649-6.04785Q607.91992,69.5918,611.08789,72.47168ZM609.74414,80.728q-.38526,1.53661-2.5918,1.53564H572.208L571.44043,79.48h25.43945l4.51172-5.56787A104.22924,104.22924,0,0,1,609.74414,80.728Zm-16.416-14.11231v27.936q0,.67309-2.92773,1.584a19.134,19.134,0,0,1-5.71191.91211h-1.91993V62.96777l13.82325,1.15186Q596.30469,66.23267,593.32812,66.61572Zm-2.68847,27.26416,10.46484,7.87207a5.98592,5.98592,0,0,1-3.55273,1.82373v19.584q-.09669.38524-1.63184,1.104a22.85567,22.85567,0,0,1-3.64746,1.29639,14.73492,14.73492,0,0,1-3.84082.57568H586.6084V99.35205h-.96Zm13.9209,37.05616a19.15654,19.15654,0,0,1,7.10351,5.376,9.96348,9.96348,0,0,1,2.208,5.95166,6.153,6.153,0,0,1-1.584,4.32031,5.17662,5.17662,0,0,1-3.98438,1.728,7.95545,7.95545,0,0,1-4.03125-1.248,32.08809,32.08809,0,0,0-5.04-9.936,51.46912,51.46912,0,0,0-8.0166-8.87988l.76856-.67237A40.15891,40.15891,0,0,1,604.56055,130.936Z" transform="translate(-17 -26)" style="fill: #fff"/>
    <path d="M715.63184,112.11963q-.38526,1.53735-2.68848,1.53613H630.28809l-.86426-2.688h69.9834l5.76074-6.71972Q711.792,108.9524,715.63184,112.11963ZM644.208,69.3999h-1.15235v36.67188q0,.48193-1.00781,1.2959a9.34006,9.34006,0,0,1-2.78418,1.44043,11.94545,11.94545,0,0,1-3.98437.62353h-1.63184V65.272Zm5.18359,50.3999h52.7041v2.688H648.52734v27.07227q0,.57568-1.43945,1.3916a17.24718,17.24718,0,0,1-3.55273,1.44092,14.91269,14.91269,0,0,1-4.22364.623h-1.53613V115.19189Zm28.99219-16.12792q-.38526,1.53661-2.5918,1.53613H638.63965V102.52H665.04l4.70312-5.76025Q675.21582,100.88843,678.38379,103.67188ZM676.27148,70.648q-.38379,1.53661-2.59179,1.53613H639.12012V69.3999H662.544l4.7998-5.56787Q673.00684,67.864,676.27148,70.648Zm24.67188,68.832H642.28809V136.6958h58.65527Zm-.38379,8.44775H642.28809V145.144h58.27148ZM659.376,93.63965q-3.74415,4.65747-14.87989,7.44043l-.67285-1.248q6.71923-3.35961,9.02442-7.43994a18.12357,18.12357,0,0,0,2.30371-9.07227v-5.376h8.06445v5.376A16.545,16.545,0,0,1,659.376,93.63965Zm16.8955-6.86377a2.058,2.058,0,0,1-2.30371,1.53613H644.6875l-.76758-2.688h22.55957l3.36035-4.22412Q673.87109,84.56763,676.27148,86.77588ZM655.82324,76.6958a24.70026,24.70026,0,0,1-10.08008,8.54395l-1.34375-.96q3.16846-4.70216,4.6084-12.76807l10.27149,3.36035Q658.60693,76.79321,655.82324,76.6958Zm18.52832,2.49609q-.38524,1.53663-2.40039,1.53614H648.23926l1.63281-2.78418h14.208l3.55176-4.416Q671.75829,76.793,674.35156,79.19189Zm-7.43945,43.77588a13.95943,13.95943,0,0,1-4.56055,7.34424q-3.55224,3.12086-11.23144,5.13574l-.96094-1.43994a15.03466,15.03466,0,0,0,5.76074-4.7041,14.212,14.212,0,0,0,2.30371-6.04785,66.9415,66.9415,0,0,0,.48047-9.02393v-3.168h9.31152A57.27265,57.27265,0,0,1,666.91211,122.96777Zm-4.65625-32.832q5.66309,0,8.49609,1.87207,2.83008,1.87207,2.832,4.36817a3.68538,3.68538,0,0,1-1.15234,2.688,3.90563,3.90563,0,0,1-2.87988,1.15186,6.133,6.133,0,0,1-2.11231-.38379,22.0373,22.0373,0,0,0-3.792-4.7041A33.36442,33.36442,0,0,0,658.60742,91l.86426-.76807Q660.42969,90.13746,662.25586,90.13574Zm38.87988-8.54394,9.21582,7.584a2.366,2.366,0,0,1-1.248.91211,10.80377,10.80377,0,0,1-2.39942.33594q-8.35254,14.78466-34.56055,18.33594l-.47949-1.43995A45.42082,45.42082,0,0,0,687.83984,99.208a27.55616,27.55616,0,0,0,8.87989-12.52832h-.96ZM678.96,64.6958,689.90332,68.728h-1.63184v3.456a13.062,13.062,0,0,1-2.832,7.91992q-2.833,3.79322-10.8955,5.80811l-.67188-1.15234a11.67736,11.67736,0,0,0,4.17578-5.56788,24.03686,24.03686,0,0,0,.91211-7.00781V64.6958Zm3.40723,62.01611c.09668.1919.39941.28809.91211.28809h3.93652a2.62393,2.62393,0,0,0,1.34375-.28809q.86426-.479,2.01563-3.648h.86425l.38379,3.74415a9.58744,9.58744,0,0,1,2.35254,1.104,1.57988,1.57988,0,0,1,.52832,1.2959,3.59779,3.59779,0,0,1-1.77637,3.40771q-1.77831,1.00856-6.28808,1.0083h-4.79981a18.66887,18.66887,0,0,1-5.376-.52832,2.97894,2.97894,0,0,1-1.96778-2.30371,30.02045,30.02045,0,0,1-.43261-6.19189V111.73584h8.16015V124.6001A7.92077,7.92077,0,0,0,682.36719,126.71191Zm20.68847-37.34423H676.17578l-.86426-2.688h27.74414Zm-9.69628,6.624q8.35253,2.3042,22.84863,2.1123l.0957,1.05567q-4.99218,1.82518-6.04785,8.54443a70.352,70.352,0,0,1-14.68848-3.4082,26.00176,26.00176,0,0,1-9.64746-6.144,29.05956,29.05956,0,0,1-6.28808-10.70411l1.43945-.67187A19.40018,19.40018,0,0,0,693.35938,95.9917Zm7.77636-24.48H683.56738V68.728h17.56836Zm-3.168-7.48779,8.25586,6.91211a4.464,4.464,0,0,1-2.97558,1.248v3.168a.82371.82371,0,0,0,1.05566,1.05566h1.82422a8.493,8.493,0,0,0,1.63184-.0957c.70312,0,1.15234-.15918,1.34375-.48a17.39107,17.39107,0,0,0,2.49609-5.18408h1.05566L713.04,75.832a4.65719,4.65719,0,0,1,2.01562,1.3916,3.32246,3.32246,0,0,1,.4795,1.87207,3.23428,3.23428,0,0,1-2.35157,3.26416q-2.354.86427-8.1123.86377h-3.83984a12.06446,12.06446,0,0,1-4.51172-.62353,3.15577,3.15577,0,0,1-1.87207-2.01612,14.59493,14.59493,0,0,1-.43164-4.08007V68.728h-.86426Zm2.01563,50.208,10.65625,8.064a5.79774,5.79774,0,0,1-3.36035,1.82373v25.728q-.09669.57641-3.50391,1.67968a19.84387,19.84387,0,0,1-6,1.1045h-2.01562v-32.832h-.96Z" transform="translate(-17 -26)" style="fill: #fff"/>
    <path d="M381.44336,182.48633a6.40363,6.40363,0,0,0-1.28565.15429,9.79361,9.79361,0,0,0-1.52685.46094l.21973,22.52246q0,.26367.80224.64844a10.39958,10.39958,0,0,0,2.38379.69238v1.60352H370.56689v-1.60352a13.27264,13.27264,0,0,0,2.36231-.67089q.86718-.36183.86768-.66993l-.17579-17.86425-9.3164,20.80859h-2.06543l-9.14063-20.76367-.17578,17.81933q0,.26367.7251.64844a8.87855,8.87855,0,0,0,2.30713.69238v1.60352h-9.22852v-1.60352a10.04155,10.04155,0,0,0,2.26319-.67089q.74706-.36183.74707-.66993l.21972-22.36816a5.32917,5.32917,0,0,0-1.57129-.60449,7.2622,7.2622,0,0,0-1.439-.165v-1.60352h7.60254a1.09829,1.09829,0,0,1,.39551.06641.82361.82361,0,0,1,.34033.26367,3.48924,3.48924,0,0,1,.36279.55957q.19776.36328.46143.95606l8.08593,18.34765,8.23975-18.34765q.28564-.65919.4834-1.02149a2.71221,2.71221,0,0,1,.37353-.5498.76152.76152,0,0,1,.34082-.23047,1.4005,1.4005,0,0,1,.36231-.04395h7.44873Z" transform="translate(-17 -26)" style="fill: #fff"/>
    <path d="M387.61914,208.56836v-1.24805a8.03753,8.03753,0,0,0,1.75147-.52051c.39355-.18847.58984-.36132.58984-.52148V189.3418c0-.13672-.18555-.30664-.55566-.51172a6.46514,6.46514,0,0,0-1.78565-.54688v-1.248h8.97217v1.248a7.84386,7.84386,0,0,0-1.76026.5293c-.39892.19434-.59814.37012-.59814.5293v16.93652q0,.20508.564.50391a6.84953,6.84953,0,0,0,1.79443.53808v1.24805Z" transform="translate(-17 -26)" style="fill: #fff"/>
    <path d="M400.96777,208.56836v-1.24805a4.866,4.866,0,0,0,1.79444-.47851q.54638-.32373.54687-.56348V189.53027a4.51614,4.51614,0,0,0-2.34131-1.24707v-1.248h4.76807a1.7016,1.7016,0,0,1,.41895.043.90874.90874,0,0,1,.333.17969,2.15826,2.15826,0,0,1,.36719.40137q.19629.26514.52148.709l10.459,14.49219V189.3418a.43728.43728,0,0,0-.11133-.24707,1.20739,1.20739,0,0,0-.376-.291,3.90378,3.90378,0,0,0-.71777-.28223,8.32518,8.32518,0,0,0-1.13623-.23828v-1.248h7.26318v1.248a5.22594,5.22594,0,0,0-1.79443.49512q-.564.3252-.564.56348v19.73925a7.19259,7.19259,0,0,1-2.63184-.64062,3.99287,3.99287,0,0,1-1.45264-1.13672l-10.44189-14.458v13.43262a.423.423,0,0,0,.11963.248,1.27423,1.27423,0,0,0,.40185.29,4.38375,4.38375,0,0,0,.72608.28222,6.68763,6.68763,0,0,0,1.11084.22168v1.24805Z" transform="translate(-17 -26)" style="fill: #fff"/>
    <path d="M426.43262,208.56836v-1.24805a8.03741,8.03741,0,0,0,1.75146-.52051c.39356-.18847.58985-.36132.58985-.52148V189.3418c0-.13672-.18555-.30664-.55567-.51172a6.465,6.465,0,0,0-1.78564-.54688v-1.248h8.97217v1.248a7.8437,7.8437,0,0,0-1.76026.5293c-.39892.19434-.59814.37012-.59814.5293v6.92187h8.88672V189.3418c0-.13672-.18555-.30664-.55567-.51172a6.465,6.465,0,0,0-1.78564-.54688v-1.248H448.564v1.248a7.84375,7.84375,0,0,0-1.76025.5293c-.39892.19434-.59814.37012-.59814.5293v16.93652q0,.20508.564.50391a6.84966,6.84966,0,0,0,1.79443.53808v1.24805H439.5918v-1.24805a8.03741,8.03741,0,0,0,1.75146-.52051c.39356-.18847.58985-.36132.58985-.52148v-7.96387h-8.88672v7.96387q0,.20508.55566.50391a6.708,6.708,0,0,0,1.80274.53808v1.24805Z" transform="translate(-17 -26)" style="fill: #fff"/>
    <path d="M466.87744,208.56836v-1.60352a10.29965,10.29965,0,0,0,2.25244-.67089q.75733-.36183.75782-.66993V183.84961q0-.26367-.71387-.66016a8.37392,8.37392,0,0,0-2.29639-.70312v-1.60352h11.53565v1.60352a10.13859,10.13859,0,0,0-2.26319.68164q-.769.37353-.769.68164v10.23828l8.17383-9.64551a7.58055,7.58055,0,0,0,.71386-.94433q.20947-.35157.0879-.54981a.90961.90961,0,0,0-.6045-.29687,11.74673,11.74673,0,0,0-1.33984-.165v-1.60352h9.88769v1.60352q-.70312.08935-1.19726.17578a4.81767,4.81767,0,0,0-.86816.23144,2.78961,2.78961,0,0,0-.68165.37305,6.343,6.343,0,0,0-.6582.583l-9.42676,9.86523,10.59082,11.22852a2.84013,2.84013,0,0,0,.72461.60352,2.56839,2.56839,0,0,0,.80274.28613,4.5606,4.5606,0,0,0,.91113.06543c.32227-.00684.67383-.03321,1.05469-.07617l.15429,1.60351q-.6372.19776-1.42773.4502-.79248.25341-1.583.47265-.791.21973-1.51562.374a6.22567,6.22567,0,0,1-1.252.15332,3.00478,3.00478,0,0,1-1.13183-.19825,2.32855,2.32855,0,0,1-.93457-.74609l-10.48047-13.0957V205.624q0,.26367.71387.64844a8.71349,8.71349,0,0,0,2.31836.69238v1.60352Z" transform="translate(-17 -26)" style="fill: #fff"/>
    <path d="M497.38672,208.56836v-1.24805a8.02592,8.02592,0,0,0,1.75195-.52051c.39356-.18847.58985-.36132.58985-.52148V189.3418c0-.13672-.18555-.30664-.55567-.51172a6.46952,6.46952,0,0,0-1.78613-.54688v-1.248h8.97266v1.248a7.82994,7.82994,0,0,0-1.75977.5293c-.39941.19434-.59863.37012-.59863.5293v6.92187h8.88672V189.3418c0-.13672-.18555-.30664-.55567-.51172a6.46057,6.46057,0,0,0-1.78515-.54688v-1.248h8.97167v1.248a7.85754,7.85754,0,0,0-1.76074.5293c-.39843.19434-.59765.37012-.59765.5293v16.93652c0,.13672.1875.30469.56445.50391a6.83262,6.83262,0,0,0,1.79394.53808v1.24805h-8.97167v-1.24805a8.03161,8.03161,0,0,0,1.751-.52051c.39356-.18847.58985-.36132.58985-.52148v-7.96387H504.001v7.96387c0,.13672.18457.30469.55566.50391a6.71387,6.71387,0,0,0,1.80274.53808v1.24805Z" transform="translate(-17 -26)" style="fill: #fff"/>
    <path d="M543.27441,197.51172a11.99113,11.99113,0,0,1-.376,3.00781,12.88,12.88,0,0,1-1.05078,2.74219,11.94153,11.94153,0,0,1-1.61524,2.3584,10.738,10.738,0,0,1-2.085,1.83691,9.91175,9.91175,0,0,1-2.44434,1.19727,8.544,8.544,0,0,1-2.68261.42675,8.22813,8.22813,0,0,1-3.87989-.90527,8.98662,8.98662,0,0,1-2.92187-2.42773,11.13386,11.13386,0,0,1-1.83691-3.50293,13.34531,13.34531,0,0,1-.64161-4.13574,12.9094,12.9094,0,0,1,.76075-4.42579,11.78111,11.78111,0,0,1,2.11914-3.6914,10.19814,10.19814,0,0,1,3.24707-2.5293,9.16663,9.16663,0,0,1,4.14453-.94043,8.25685,8.25685,0,0,1,3.98242.93164,8.99835,8.99835,0,0,1,2.9043,2.46973,10.87555,10.87555,0,0,1,1.77734,3.51953A13.98949,13.98949,0,0,1,543.27441,197.51172Zm-4.30664.30664a13.692,13.692,0,0,0-.41894-3.40039,10.61679,10.61679,0,0,0-1.1875-2.90527,6.59707,6.59707,0,0,0-1.84571-2.01661,4.08717,4.08717,0,0,0-2.39257-.752,3.95466,3.95466,0,0,0-2.17871.60645,4.84253,4.84253,0,0,0-1.58985,1.74316,9.35954,9.35954,0,0,0-.96582,2.78613,19.48448,19.48448,0,0,0-.32422,3.7334,13.677,13.677,0,0,0,.45313,3.58984,10.69,10.69,0,0,0,1.23047,2.91309,6.49367,6.49367,0,0,0,1.81152,1.94824,3.83224,3.83224,0,0,0,2.21289.709,4.07526,4.07526,0,0,0,2.07617-.54688,4.72267,4.72267,0,0,0,1.64063-1.666,9.3439,9.3439,0,0,0,1.085-2.80274A17.432,17.432,0,0,0,538.96777,197.81836Zm-1.89746-17.5a1.27636,1.27636,0,0,1-.29883.8291,4.22035,4.22035,0,0,1-.709.68359q-.41016.31641-.82031.59864a2.33547,2.33547,0,0,0-.61524.58105.74265.74265,0,0,0-.11914.63184,1.60772,1.60772,0,0,0,.6836.76074,1.58517,1.58517,0,0,1-.334.1709c-.14258.05762-.29.11133-.44433.16211-.15332.05176-.30176.09375-.44434.1289-.14258.03321-.25391.05665-.333.06836a4.75354,4.75354,0,0,1-1.5039-.90625.80022.80022,0,0,1-.27344-.76074,1.34678,1.34678,0,0,1,.52148-.666q.41748-.31641.89746-.63282a6.9567,6.9567,0,0,0,.85352-.65722,1.00681,1.00681,0,0,0,.37695-.752,1.27859,1.27859,0,0,0-.19726-.80371.67886.67886,0,0,0-.55469-.23926.71543.71543,0,0,0-.56445.25586.824.824,0,0,0-.22266.54688.88024.88024,0,0,0,.18848.47852,7.65818,7.65818,0,0,1-1.11035.36816,10.09326,10.09326,0,0,1-1.48731.26465l-.18848-.1875a1.1111,1.1111,0,0,1-.05078-.3418,1.73226,1.73226,0,0,1,.333-.9834,3.47248,3.47248,0,0,1,.87988-.87109,4.95477,4.95477,0,0,1,2.78614-.86328,4.07929,4.07929,0,0,1,1.25586.1709,2.36392,2.36392,0,0,1,.85449.46972,1.8291,1.8291,0,0,1,.4873.6836A2.168,2.168,0,0,1,537.07031,180.31836Z" transform="translate(-17 -26)" style="fill: #fff"/>
    <path d="M564.39941,203.37305q-.06884.73534-.15429,1.54687c-.05762.541-.11914,1.05371-.1875,1.53809s-.13477.91406-.19727,1.29-.11719.64941-.16211.82031H547.54785v-1.24805a8.02575,8.02575,0,0,0,1.75195-.52051c.39356-.18847.58985-.36132.58985-.52148V189.3418c0-.13672-.18555-.30664-.55567-.51172a6.4694,6.4694,0,0,0-1.78613-.54688v-1.248h15.05664l.6836.54687c-.02344.29688-.05762.666-.10254,1.11133q-.06885.665-.1709,1.36719-.10254.70019-.21387,1.32422a8.036,8.036,0,0,1-.21387.94824h-1.28125a7.72223,7.72223,0,0,0-.42773-2.418q-.34131-.82911-.97363-.8291h-5.74219v6.92187h6.80176l.56445.59766c-.0918.16015-.20312.34473-.334.55566s-.26758.41895-.41016.624-.28516.3955-.42676.57226a2.21028,2.21028,0,0,1-.40137.40137,2.63521,2.63521,0,0,0-.55566-.42676,3.45938,3.45938,0,0,0-.68359-.291,4.64044,4.64044,0,0,0-.90625-.1709q-.52149-.05127-1.23926-.05176h-2.40918v7.60547a.8513.8513,0,0,0,.12012.45312.96179.96179,0,0,0,.49511.3418,4.4208,4.4208,0,0,0,1.05957.22168,16.79085,16.79085,0,0,0,1.81153.07715h1.69238a4.21694,4.21694,0,0,0,1.34082-.1875,2.5764,2.5764,0,0,0,.9834-.60742,4.258,4.258,0,0,0,.77734-1.10157,14.23808,14.23808,0,0,0,.709-1.69238Z" transform="translate(-17 -26)" style="fill: #fff"/>
    <path d="M588.11914,208.56836v-1.60352a13.95656,13.95656,0,0,0,1.66992-.418,7.14354,7.14354,0,0,0,1.05469-.42872,1.80833,1.80833,0,0,0,.54883-.3955.55745.55745,0,0,0,.1543-.33985V183.51953h-5.58106a1.00538,1.00538,0,0,0-.626.23047,2.5907,2.5907,0,0,0-.60449.78027,14.83571,14.83571,0,0,0-.68066,1.42871q-.375.87891-.85742,2.15235l-1.60352-.59278q.04248-.6372.14258-1.53808.09814-.90088.23047-1.8457.13184-.94483.26367-1.8125.13184-.86867.24219-1.43946h23.50976l.83594.70313c-.01563.38086-.04785.835-.09961,1.3623q-.07617.791-.19727,1.66992-.12158.87891-.26367,1.74707-.14355.8672-.27539,1.54883H604.335q-.21972-1.01075-.3623-1.835a11.24,11.24,0,0,0-.31836-1.38379,2.353,2.353,0,0,0-.45118-.86816.93625.93625,0,0,0-.73632-.30762H597.04v21.86328a.54576.54576,0,0,0,.15332.31836,1.97081,1.97081,0,0,0,.5498.40625,6.29525,6.29525,0,0,0,1.06543.43946,14.56958,14.56958,0,0,0,1.68164.418v1.60352Z" transform="translate(-17 -26)" style="fill: #fff"/>
    <path d="M632.9502,188.2832a7.841,7.841,0,0,0-1.76075.5293c-.39941.19434-.59863.37012-.59863.5293v10.27148a11.9457,11.9457,0,0,1-.62305,3.999,8.44308,8.44308,0,0,1-1.75195,2.97364,7.55525,7.55525,0,0,1-2.6748,1.85449,8.7826,8.7826,0,0,1-3.39161.64062,11.02329,11.02329,0,0,1-3.3164-.4873,7.68026,7.68026,0,0,1-2.72559-1.48633,6.98585,6.98585,0,0,1-1.8457-2.52148,8.82828,8.82828,0,0,1-.67481-3.60547V189.3418c0-.13672-.18554-.30664-.55566-.51172a6.46952,6.46952,0,0,0-1.78613-.54688v-1.248h8.97265v1.248a7.83,7.83,0,0,0-1.75976.5293c-.39942.19434-.59863.37012-.59863.5293v10.52734a12.96593,12.96593,0,0,0,.29,2.89746,5.64815,5.64815,0,0,0,.92383,2.11035,3.92418,3.92418,0,0,0,1.64844,1.29,6.29972,6.29972,0,0,0,2.48633.43653,3.67051,3.67051,0,0,0,2.05078-.54688,4.216,4.216,0,0,0,1.35937-1.45312,6.77657,6.77657,0,0,0,.752-2.09375,12.85961,12.85961,0,0,0,.23047-2.45215V189.3418c0-.13672-.18555-.30664-.55567-.51172a6.46952,6.46952,0,0,0-1.78613-.54688v-1.248h7.69141Z" transform="translate(-17 -26)" style="fill: #fff"/>
    <path d="M653.73242,203.37305q-.06885.73534-.1543,1.54687c-.05761.541-.11914,1.05371-.1875,1.53809s-.13476.91406-.19726,1.29-.11719.64941-.16211.82031H636.88086v-1.24805a8.02592,8.02592,0,0,0,1.75195-.52051c.39356-.18847.58985-.36132.58985-.52148V189.3418c0-.13672-.18555-.30664-.55567-.51172a6.4694,6.4694,0,0,0-1.78613-.54688v-1.248H651.9375l.68359.54687c-.02343.29688-.05761.666-.10254,1.11133q-.06884.665-.17089,1.36719-.10254.70019-.21387,1.32422a8.036,8.036,0,0,1-.21387.94824h-1.28125a7.72281,7.72281,0,0,0-.42773-2.418q-.34131-.82911-.97364-.8291h-5.74218v6.92187h6.80176l.56445.59766c-.0918.16015-.20313.34473-.334.55566s-.26757.41895-.41015.624-.28516.3955-.42676.57226a2.21028,2.21028,0,0,1-.40137.40137,2.63521,2.63521,0,0,0-.55566-.42676,3.45974,3.45974,0,0,0-.6836-.291,4.64015,4.64015,0,0,0-.90625-.1709q-.52148-.05127-1.23925-.05176h-2.40918v7.60547a.85138.85138,0,0,0,.12011.45312.96186.96186,0,0,0,.49512.3418,4.4208,4.4208,0,0,0,1.05957.22168,16.79085,16.79085,0,0,0,1.81153.07715h1.69238a4.21694,4.21694,0,0,0,1.34082-.1875,2.5764,2.5764,0,0,0,.9834-.60742,4.258,4.258,0,0,0,.77734-1.10157,14.23808,14.23808,0,0,0,.709-1.69238ZM651.083,184.30078a4.75662,4.75662,0,0,1-.45313.60645,1.65621,1.65621,0,0,1-.53808.41894l-4.80274-2.78515-4.76758,2.78515a1.64616,1.64616,0,0,1-.53808-.41894q-.249-.28125-.48731-.60645l4.76758-5.53711h2.08594Zm-3.43457,28.916a3.23694,3.23694,0,0,1-.21387,1.17968,3.20371,3.20371,0,0,1-.57324.957,2.664,2.664,0,0,1-.84571.64843,2.30316,2.30316,0,0,1-1.0332.24024,2.05058,2.05058,0,0,1-1.51269-.52149,2.09861,2.09861,0,0,1-.52149-1.54687,3.17765,3.17765,0,0,1,.22168-1.1875,3.22348,3.22348,0,0,1,.58985-.96582,2.675,2.675,0,0,1,.85449-.64063,2.34442,2.34442,0,0,1,1.0166-.23144,2.02962,2.02962,0,0,1,1.4873.52148A2.08148,2.08148,0,0,1,647.64844,213.2168Z" transform="translate(-17 -26)" style="fill: #fff"/>
    <path d="M678.44141,208.56836v-1.60352a14.79259,14.79259,0,0,0,1.65918-.418,6.99181,6.99181,0,0,0,1.06543-.42872,1.98871,1.98871,0,0,0,.56054-.3955.53731.53731,0,0,0,.165-.33985v-8.4375q-.791-1.75781-1.78027-3.626-.98731-1.86768-1.999-3.61426-1.01073-1.74756-1.97753-3.24121-.96681-1.49415-1.73633-2.52637a3.80841,3.80841,0,0,0-.417-.43945,1.738,1.738,0,0,0-.59278-.33008,4.88771,4.88771,0,0,0-.94531-.209,11.76112,11.76112,0,0,0-1.49414-.07617l-.08789-1.60449q.6372-.08789,1.46094-.19824.8247-.10841,1.63671-.19727.813-.08789,1.52735-.15429.71484-.06446,1.17578-.06543a3.1019,3.1019,0,0,1,1.23047.26367,2.42917,2.42917,0,0,1,.98828.74707q.813,1.09863,1.70312,2.50488.89063,1.40625,1.80176,2.98828.9126,1.582,1.78028,3.24121.86718,1.6582,1.63671,3.24024l5.14161-9.71094a.58768.58768,0,0,0-.209-.90137,6.57654,6.57654,0,0,0-2.22949-.5498v-1.60352h9.18359v1.60352a11.78263,11.78263,0,0,0-2.21875.59375,2.04078,2.04078,0,0,0-1.0332.85742l-7.05273,13.13867v8.30664a.54228.54228,0,0,0,.15429.31836,1.94838,1.94838,0,0,0,.54883.40625,6.2949,6.2949,0,0,0,1.06543.43946,14.35834,14.35834,0,0,0,1.70313.418v1.60352Z" transform="translate(-17 -26)" style="fill: #fff"/>
    <path d="M347.26953,234.627c-.64892-2.42871-1.68506-4.88672-5.1499-4.88672a3.63994,3.63994,0,0,0-3.8252,3.95313c0,2.46,1.58155,3.74121,4.686,5.33887,4.35351,2.23437,6.38428,3.97656,6.38428,7.51855,0,3.97168-3.41358,6.97168-8.28028,6.97168a16.37817,16.37817,0,0,1-5.76123-1.207c-.28271-1.00293-.76025-3.75879-1.019-5.71094l1.20019-.30273c.74024,2.45312,2.44825,5.81836,6.25635,5.81836a3.94708,3.94708,0,0,0,4.17237-4.168c0-2.72266-1.48389-3.89063-4.71338-5.64649-3.87842-2.10254-6.12159-3.8916-6.12159-7.40625,0-3.39941,2.79151-6.501,7.79541-6.501a24.25144,24.25144,0,0,1,4.958.69629c.14795,1.33886.31592,2.89843.61182,5.29Z" transform="translate(-17 -26)" style="fill: #fff"/>
    <path d="M372.20312,252.96777V251.8916c2.05665-.22168,2.31543-.37012,2.31543-2.90039v-6.21875c0-2.707-.98779-4.17285-3.07519-4.17285a6.32,6.32,0,0,0-3.86133,1.78418c.03711.44433.10449.9082.10449,1.585v7.23145c0,2.28418.293,2.46972,2.26856,2.6914v1.07617h-7.99219V251.8916c2.17432-.22168,2.47412-.36328,2.47412-2.752V242.708c0-2.71778-.88428-4.11524-2.98144-4.11524a6.6732,6.6732,0,0,0-3.85059,1.77832v8.76856c0,2.375.25244,2.53027,2.228,2.752v1.07617h-8.04883V251.8916c2.36914-.22851,2.57129-.377,2.57129-2.77832v-7.69336c0-2.31445-.12793-2.49609-2.14014-2.8457v-.97168a22.66061,22.66061,0,0,0,5.38965-1.4668v2.957a27.97807,27.97807,0,0,1,2.65137-1.85156,5.17125,5.17125,0,0,1,2.96338-.99512,4.30921,4.30921,0,0,1,4.05322,2.99414c1.00928-.78711,1.93164-1.39648,2.85644-2.02539a5.62722,5.62722,0,0,1,2.93018-.96875c2.9458,0,4.709,2.09278,4.709,5.74512v7.14844c0,2.39941.21534,2.5166,2.271,2.752v1.07617Z" transform="translate(-17 -26)" style="fill: #fff"/>
    <path d="M394.106,253.41211a2.82132,2.82132,0,0,1-1.83887-.7168,3.45682,3.45682,0,0,1-.90137-1.61133c-1.46679.98536-3.28027,2.32813-4.34717,2.32813a4.59613,4.59613,0,0,1-4.60742-4.5918c0-1.83984.979-2.9707,3.00049-3.68652,2.24414-.78418,5.0459-1.73242,5.8667-2.41211v-.89941c0-2.501-1.21875-3.93848-3.083-3.93848a2.09174,2.09174,0,0,0-1.69287.83105,7.78064,7.78064,0,0,0-.979,2.41211,1.108,1.108,0,0,1-1.166.92481,1.86466,1.86466,0,0,1-1.728-1.68164c0-.54492.47413-.99512,1.23438-1.52735a16.11655,16.11655,0,0,1,5.43457-2.59668,5.35446,5.35446,0,0,1,3.23486,1.0127,5.09427,5.09427,0,0,1,1.91407,4.33887v7.00781c0,1.71582.62207,2.2207,1.2749,2.2207a2.918,2.918,0,0,0,1.29883-.38672l.37646,1.0752Zm-2.82764-9.35547c-.7876.40039-2.36377,1.10449-3.19482,1.48145-1.35938.62207-2.17725,1.31836-2.17725,2.667a2.6568,2.6568,0,0,0,2.59082,2.84277,4.40425,4.40425,0,0,0,2.78125-1.19824Z" transform="translate(-17 -26)" style="fill: #fff"/>
    <path d="M407.63916,252.96777h-8.73682V251.8916c2.26465-.22168,2.48-.40722,2.48-2.77832v-7.77051c0-2.335-.14794-2.46-2.22119-2.73828v-.96582a22.773,22.773,0,0,0,5.47754-1.49707v4.05762c1.36133-2.03809,2.87549-3.95313,4.666-3.95313a1.97079,1.97079,0,0,1,2.19238,1.85645,2.68949,2.68949,0,0,1-1.37109,2.23437.77885.77885,0,0,1-.99561-.09375,2.47531,2.47531,0,0,0-1.67822-.958c-.73731,0-2.02637,1.02734-2.81348,2.82714V249.082c0,2.40235.19824,2.57422,3.00049,2.80957Z" transform="translate(-17 -26)" style="fill: #fff"/>
    <path d="M421.05713,252.94434a3.78411,3.78411,0,0,1-1.5708.46777c-2.45508,0-3.793-1.42383-3.793-4.457v-10.6875h-2.51953l-.16162-.44434,1.0122-1.13281h1.66895v-3.10156c.80322-.7666,2.00928-1.76856,2.81885-2.53516l.542.11328c-.06738,1.4541-.11133,3.56739-.10449,5.52344h4.125a1.23108,1.23108,0,0,1-.23535,1.57715h-3.88965V247.667c0,2.97656,1.18408,3.49219,2.09961,3.49219a5.19272,5.19272,0,0,0,2.17041-.55176l.33984,1.02832Z" transform="translate(-17 -26)" style="fill: #fff"/>
    <path d="M460.01172,230.01172c-3.03809.29687-3.32715.48828-3.32715,3.58984v14.71778c0,3.10156.32617,3.23242,3.32715,3.55273v1.0957H449.82178v-1.0957c3.04443-.37012,3.32715-.45117,3.32715-3.55273V240.999h-12.1753v7.32032c0,3.07128.30274,3.19531,3.29053,3.55273v1.0957H434.11133v-1.0957c2.95068-.32715,3.29687-.45117,3.29687-3.55273V233.60156c0-3.10156-.333-3.30664-3.29687-3.58984V228.916h10.15283v1.0957c-2.93359.25976-3.29053.51855-3.29053,3.58984v5.77637h12.1753v-5.77637c0-3.07129-.40039-3.32422-3.32715-3.58984V228.916h10.18994Z" transform="translate(-17 -26)" style="fill: #fff"/>
    <path d="M475.48682,249.73633c-2.34815,3.02637-5.00489,3.67578-6.25586,3.67578-4.59424,0-7.34571-3.69434-7.34571-7.97559a9.54345,9.54345,0,0,1,2.47168-6.50879,7.7112,7.7112,0,0,1,5.56006-2.68164,5.825,5.825,0,0,1,5.74121,5.78907c-.03027.71972-.12793,1.10644-.69336,1.248-.73339.1543-5.55615.47364-9.813.62207-.06446,4.77149,2.81689,6.79981,5.45068,6.79981a6.27288,6.27288,0,0,0,4.27881-1.84668Zm-6.43116-12.06348c-1.66211,0-3.2539,1.61719-3.71875,4.60156,1.97217-.00683,3.92432-.01367,5.99463-.11132.63916-.00684.86133-.17188.86133-.74024C472.23,239.48145,471.01465,237.67285,469.05566,237.67285Z" transform="translate(-17 -26)" style="fill: #fff"/>
    <path d="M489.93359,253.41211a2.81673,2.81673,0,0,1-1.83789-.7168,3.45866,3.45866,0,0,1-.90234-1.61133c-1.4668.98536-3.2793,2.32813-4.34668,2.32813a4.59581,4.59581,0,0,1-4.60742-4.5918c0-1.83984.97949-2.9707,3.001-3.68652,2.24415-.78418,5.04493-1.73242,5.86622-2.41211v-.89941c0-2.501-1.21875-3.93848-3.083-3.93848a2.09418,2.09418,0,0,0-1.69336.83105,7.78145,7.78145,0,0,0-.97852,2.41211,1.10835,1.10835,0,0,1-1.166.92481,1.86466,1.86466,0,0,1-1.728-1.68164c0-.54492.47412-.99512,1.23389-1.52735a16.11749,16.11749,0,0,1,5.43554-2.59668,5.35408,5.35408,0,0,1,3.23438,1.0127,5.09428,5.09428,0,0,1,1.91406,4.33887v7.00781c0,1.71582.62207,2.2207,1.27539,2.2207a2.918,2.918,0,0,0,1.29883-.38672l.376,1.0752Zm-2.82714-9.35547c-.78809.40039-2.36426,1.10449-3.19434,1.48145-1.35938.62207-2.17773,1.31836-2.17773,2.667a2.65653,2.65653,0,0,0,2.59082,2.84277,4.40644,4.40644,0,0,0,2.78125-1.19824Z" transform="translate(-17 -26)" style="fill: #fff"/>
    <path d="M494.20117,252.96777V251.8916c2.32129-.24219,2.57715-.42676,2.57715-2.84863V231.47852c0-2.19727-.19141-2.41993-2.47949-2.73536v-1.00195a28.3,28.3,0,0,0,5.73633-1.25879V249.043c0,2.44141.20214,2.62012,2.55371,2.84863v1.07617Z" transform="translate(-17 -26)" style="fill: #fff"/>
    <path d="M511.668,252.94434a3.78778,3.78778,0,0,1-1.57129.46777c-2.45508,0-3.793-1.42383-3.793-4.457v-10.6875h-2.51953l-.16113-.44434,1.01172-1.13281h1.66894v-3.10156c.80274-.7666,2.00977-1.76856,2.81934-2.53516l.541.11328c-.06738,1.4541-.11035,3.56739-.10449,5.52344h4.126a1.23166,1.23166,0,0,1-.23535,1.57715h-3.89063V247.667c0,2.97656,1.18457,3.49219,2.09961,3.49219a5.195,5.195,0,0,0,2.1709-.55176l.33984,1.02832Z" transform="translate(-17 -26)" style="fill: #fff"/>
    <path d="M525.915,252.96777V251.8916c2.05273-.22851,2.31543-.42676,2.31543-2.78906V242.9541c0-3.03125-1.18359-4.47851-3.47656-4.44824a5.01542,5.01542,0,0,0-3.70215,1.77051v8.82617c0,2.332.27539,2.56055,2.40234,2.78906v1.07617h-8.19922V251.8916c2.08594-.1914,2.54-.36328,2.54-2.81543v-17.709c0-1.91407-.13086-2.38184-2.53613-2.624v-1.00195a25.21847,25.21847,0,0,0,5.793-1.25879v12.41211c1.32519-1.31933,3.32031-2.64844,5.29883-2.64844,3.06738,0,5.14257,1.92774,5.14257,6.30079v6.55957c0,2.42187.29,2.58007,2.36914,2.78515v1.07617Z" transform="translate(-17 -26)" style="fill: #fff"/>
    <path d="M549.9668,249.59082c-1.6416,2.19922-4.1211,3.82129-6.34766,3.82129a7.52754,7.52754,0,0,1-7.58789-7.80371,8.79257,8.79257,0,0,1,3.74414-7.21973,9.98029,9.98029,0,0,1,5.77051-2.14258,5.54235,5.54235,0,0,1,3.4082.9795,1.23367,1.23367,0,0,1,.61231,1.126,1.95355,1.95355,0,0,1-1.39258,1.73828c-.19824,0-.36621-.08007-.72266-.376a5.64644,5.64644,0,0,0-3.75781-1.6211c-2.26172,0-4.335,1.95215-4.335,5.82715-.03028,5.10352,3.49805,6.78516,5.54492,6.78516a5.84047,5.84047,0,0,0,4.41406-1.94824Z" transform="translate(-17 -26)" style="fill: #fff"/>
    <path d="M563.74512,253.41211a2.82335,2.82335,0,0,1-1.83887-.7168,3.46537,3.46537,0,0,1-.90137-1.61133c-1.46679.98536-3.27929,2.32813-4.34668,2.32813a4.59581,4.59581,0,0,1-4.60742-4.5918c0-1.83984.97852-2.9707,3.001-3.68652,2.24316-.78418,5.04492-1.73242,5.86621-2.41211v-.89941c0-2.501-1.21875-3.93848-3.083-3.93848a2.0893,2.0893,0,0,0-1.69238.83105,7.75561,7.75561,0,0,0-.97949,2.41211,1.10837,1.10837,0,0,1-1.166.92481,1.86512,1.86512,0,0,1-1.72852-1.68164c0-.54492.47461-.99512,1.23438-1.52735a16.11765,16.11765,0,0,1,5.43555-2.59668,5.352,5.352,0,0,1,3.23437,1.0127,5.09428,5.09428,0,0,1,1.91406,4.33887v7.00781c0,1.71582.62207,2.2207,1.27539,2.2207a2.91791,2.91791,0,0,0,1.29883-.38672l.376,1.0752Zm-2.82715-9.35547c-.78711.40039-2.36426,1.10449-3.19531,1.48145-1.35938.62207-2.17676,1.31836-2.17676,2.667a2.65708,2.65708,0,0,0,2.59082,2.84277,4.40644,4.40644,0,0,0,2.78125-1.19824Z" transform="translate(-17 -26)" style="fill: #fff"/>
    <path d="M577.2793,252.96777H568.542V251.8916c2.26465-.22168,2.47949-.40722,2.47949-2.77832v-7.77051c0-2.335-.14746-2.46-2.2207-2.73828v-.96582a22.77308,22.77308,0,0,0,5.47754-1.49707v4.05762c1.36133-2.03809,2.876-3.95313,4.666-3.95313a1.97051,1.97051,0,0,1,2.19238,1.85645,2.69054,2.69054,0,0,1-1.3711,2.23437.77817.77817,0,0,1-.99511-.09375,2.47627,2.47627,0,0,0-1.67871-.958c-.73731,0-2.02637,1.02734-2.81348,2.82714V249.082c0,2.40235.19824,2.57422,3.001,2.80957Z" transform="translate(-17 -26)" style="fill: #fff"/>
    <path d="M596.0293,249.73633c-2.34864,3.02637-5.00489,3.67578-6.25586,3.67578-4.59375,0-7.34571-3.69434-7.34571-7.97559a9.54345,9.54345,0,0,1,2.47168-6.50879,7.71136,7.71136,0,0,1,5.56055-2.68164,5.82529,5.82529,0,0,1,5.74121,5.78907c-.03027.71972-.12793,1.10644-.69336,1.248-.7334.1543-5.55664.47364-9.81347.62207-.06446,4.77149,2.8164,6.79981,5.45019,6.79981a6.274,6.274,0,0,0,4.2793-1.84668Zm-6.43067-12.06348c-1.66308,0-3.25488,1.61719-3.71875,4.60156,1.97168-.00683,3.92383-.01367,5.99414-.11132.63965-.00684.86133-.17188.86133-.74024C592.77246,239.48145,591.55664,237.67285,589.59863,237.67285Z" transform="translate(-17 -26)" style="fill: #fff"/>
    <path d="M620.36133,234.627c-.64844-2.42871-1.68457-4.88672-5.14942-4.88672a3.64071,3.64071,0,0,0-3.82617,3.95313c0,2.46,1.582,3.74121,4.68653,5.33887,4.35351,2.23437,6.38476,3.97656,6.38476,7.51855,0,3.97168-3.41406,6.97168-8.28125,6.97168a16.38015,16.38015,0,0,1-5.76074-1.207c-.2832-1.00293-.75977-3.75879-1.01953-5.71094l1.20019-.30273c.74024,2.45312,2.44825,5.81836,6.25684,5.81836a3.94746,3.94746,0,0,0,4.17285-4.168c0-2.72266-1.48437-3.89063-4.71387-5.64649-3.8789-2.10254-6.12207-3.8916-6.12207-7.40625,0-3.39941,2.792-6.501,7.7959-6.501a24.25713,24.25713,0,0,1,4.958.69629c.14746,1.33886.31543,2.89843.6123,5.29Z" transform="translate(-17 -26)" style="fill: #fff"/>
    <path d="M640.87988,237.73633c-1.89746.28906-2.29785.59863-3.22265,2.6875-.92578,2.0459-1.93067,4.6084-4.41114,10.81347a103.60625,103.60625,0,0,0-3.71,10.21192c-.22851.78418-.64258.98242-1.14941.98242a2.26638,2.26638,0,0,1-2.37793-1.88281c0-.501.25293-.82715.84766-1.3086a8.14765,8.14765,0,0,0,2.59277-2.72461c.70312-1.38769,1.23242-2.62988,1.41016-3.10351a2.115,2.115,0,0,0-.08692-1.49707c-1.53027-4.41895-3.59473-9.06348-4.625-11.52734-.78711-1.94825-1.14062-2.39258-3.12891-2.65137v-1.0459h7.79395v1.0459c-1.68164.25879-1.87988.6084-1.41211,1.9375l3.46289,8.87012c.9961-2.46,2.44922-6.44043,3.20606-8.72559.43066-1.36621.13183-1.78613-1.96094-2.082v-1.0459h6.77148Z" transform="translate(-17 -26)" style="fill: #fff"/>
    <path d="M651.48047,241.167c-.71973-2.22656-1.73535-3.65332-3.89844-3.65332a2.184,2.184,0,0,0-2.23437,2.3252c0,1.53808,1.04589,2.27148,3.09179,3.21386,3.14844,1.4834,4.82032,2.62012,4.82032,5.14942,0,3.457-3.18165,5.21-6.15821,5.21a10.09783,10.09783,0,0,1-4.457-1.04981c-.17773-1.0332-.51074-3.16113-.65234-4.3955l1.09961-.19239c.68554,2.36231,2.02148,4.333,4.57812,4.333a2.361,2.361,0,0,0,2.50293-2.41015c0-1.57129-.91894-2.42286-2.93945-3.41114-2.56348-1.24511-4.71973-2.44922-4.71973-5.18652,0-2.74121,2.31445-4.85352,5.87207-4.85352a18.56633,18.56633,0,0,1,3.63281.49414c.11036.90821.38282,3.2461.56153,4.1543Z" transform="translate(-17 -26)" style="fill: #fff"/>
    <path d="M662.66211,252.94434a3.78778,3.78778,0,0,1-1.57129.46777c-2.45508,0-3.793-1.42383-3.793-4.457v-10.6875h-2.51953l-.16113-.44434,1.01172-1.13281h1.66894v-3.10156c.80274-.7666,2.00977-1.76856,2.81934-2.53516l.541.11328c-.06738,1.4541-.11035,3.56739-.10449,5.52344h4.126a1.23165,1.23165,0,0,1-.23535,1.57715h-3.89063V247.667c0,2.97656,1.18457,3.49219,2.09961,3.49219a5.195,5.195,0,0,0,2.1709-.55176l.33984,1.02832Z" transform="translate(-17 -26)" style="fill: #fff"/>
    <path d="M679.87012,249.73633c-2.34864,3.02637-5.00489,3.67578-6.25586,3.67578-4.59375,0-7.34571-3.69434-7.34571-7.97559a9.54345,9.54345,0,0,1,2.47168-6.50879,7.71138,7.71138,0,0,1,5.56055-2.68164,5.82529,5.82529,0,0,1,5.74121,5.78907c-.03027.71972-.12793,1.10644-.69336,1.248-.7334.1543-5.55664.47364-9.81347.62207-.06446,4.77149,2.8164,6.79981,5.45019,6.79981a6.274,6.274,0,0,0,4.2793-1.84668Zm-6.43067-12.06348c-1.66211,0-3.25488,1.61719-3.71875,4.60156,1.97168-.00683,3.92383-.01367,5.99414-.11132.63965-.00684.86133-.17188.86133-.74024C676.61328,239.48145,675.39746,237.67285,673.43945,237.67285Z" transform="translate(-17 -26)" style="fill: #fff"/>
    <path d="M702.56934,252.96777V251.8916c2.05566-.22168,2.31543-.37012,2.31543-2.90039v-6.21875c0-2.707-.98829-4.17285-3.07618-4.17285a6.31778,6.31778,0,0,0-3.86035,1.78418c.03711.44433.10449.9082.10449,1.585v7.23145c0,2.28418.293,2.46972,2.26758,2.6914v1.07617H692.3291V251.8916c2.17383-.22168,2.47363-.36328,2.47363-2.752V242.708c0-2.71778-.88476-4.11524-2.98144-4.11524a6.67461,6.67461,0,0,0-3.85059,1.77832v8.76856c0,2.375.252,2.53027,2.22852,2.752v1.07617h-8.04883V251.8916c2.36816-.22851,2.57031-.377,2.57031-2.77832v-7.69336c0-2.31445-.12793-2.49609-2.13965-2.8457v-.97168a22.66048,22.66048,0,0,0,5.38965-1.4668v2.957a27.97937,27.97937,0,0,1,2.65137-1.85156,5.171,5.171,0,0,1,2.96289-.99512,4.30934,4.30934,0,0,1,4.05371,2.99414c1.00977-.78711,1.93164-1.39648,2.85645-2.02539a5.62987,5.62987,0,0,1,2.92968-.96875c2.94629,0,4.709,2.09278,4.709,5.74512v7.14844c0,2.39941.21582,2.5166,2.27148,2.752v1.07617Z" transform="translate(-17 -26)" style="fill: #fff"/>
  </g>
  <g>
    <path d="M287.28271,61.88574l-.01171.042-.002.0127.00147.01514.00049.00244-.0044.00488-.00342-.00439.00049-.00293.002-.01368-.00439-.00634-.00928-.001v-.00146c.01075,0,.01319-.001.01514-.00684l.01416-.041Zm-.03076.00977c.01319.00293.01612.00586.01612.01025l-.00293.00488-.00244-.00244a.01883.01883,0,0,0-.01075-.01172Zm.00586-.02344c.0127.00293.01758.00537.01758.01025l-.00293.00489-.00293-.00293a.02284.02284,0,0,0-.01221-.01123Zm.09375.083-.00927.0039-.001.00049-.00147-.00049a.06839.06839,0,0,1-.02734-.03418l-.00928.00782v.023l.01416-.00586.00049.00146a.083.083,0,0,0-.01855.0127l-.001.00049-.00049-.00049-.00293-.0044.00342-.00439v-.01856a.16252.16252,0,0,1-.02393.0166l-.001-.00146a.238.238,0,0,0,.03857-.03369l.00537.00391.00049.00048-.001.00049-.00293.001.00733.01269.01465-.0122.00439.0039v.001l-.00049.00049-.01709.00781a.0425.0425,0,0,0,.02881.0166Zm-.00342-.07422.00147.00146-.00147.00049H287.291l-.00733.00147-.00293-.00391.00781.00049h.04932l.00391-.00586Zm-.04248.00928.00049.001-.00049.00049-.00439.002-.01953.01709-.001-.00146a.1541.1541,0,0,0,.01953-.02344Zm.01416.01123c.01368.00781.01514.01123.01514.01416l-.00342.00439-.00244-.00293-.001-.00342-.01123.00147a.06456.06456,0,0,0-.021.00439h-.00049l-.001-.00048-.00293-.00538.0083-.00488.01319-.0166.00488.00391.00049.001-.001.00049-.00439.00342-.01514.01269.0293-.002-.00781-.00879Zm-.01464-.03565c.01025.00342.01416.00635.01416.01026l-.00293.00439-.00342-.00391-.0083-.00927Zm.0205.021c.00782.0039.01905.01074.01905.01807l-.00293.0039-.00342-.00342a.03625.03625,0,0,0-.01367-.01757Z" transform="translate(-17 -26)"/>
    <path d="M287.38281,61.88574l-.01172.042-.00195.0127.00147.01514.00048.00244-.0039.00488-.00391-.00439.00049-.00293.002-.01368-.00439-.00634-.00928-.001v-.00146c.01074,0,.01318-.001.01514-.00684l.01416-.041Zm-.03076.00977c.01318.00293.01611.00586.01611.01025l-.00293.00488-.00244-.00244a.01878.01878,0,0,0-.01074-.01172Zm.00586-.02344c.0127.00293.01758.00537.01758.01025l-.00293.00489-.00293-.00293a.02292.02292,0,0,0-.01221-.01123Zm.09375.083-.00928.0039-.001.00049-.00147-.00049a.06839.06839,0,0,1-.02734-.03418l-.00928.00782v.023l.01416-.00586.00049.00146a.08315.08315,0,0,0-.01856.0127l-.001.00049-.00049-.00049-.00293-.0044.00342-.00439v-.01856a.16305.16305,0,0,1-.02393.0166l-.001-.00146a.23845.23845,0,0,0,.03857-.03369l.00537.00391.00049.00048-.001.00049-.00293.001.00782.01269.01416-.0122.00439.0039v.001l-.00049.00049-.01709.00781a.04248.04248,0,0,0,.02881.0166Zm-.00342-.07422.00147.00146-.00147.00049h-.05713l-.00732.00147-.00293-.00391.00781.00049h.04932l.0039-.00586Zm-.04248.00928.00049.001-.00049.00049-.00439.002-.01953.01709-.001-.00146a.1547.1547,0,0,0,.01953-.02344Zm.01416.01123c.01367.00781.01514.01123.01514.01416l-.00342.00439-.00244-.00293-.001-.00342-.01123.00147a.06083.06083,0,0,0-.021.00439h-.00049l-.001-.00048-.00293-.00538.0083-.00488.01319-.0166.00488.00391.00049.001-.001.00049-.00439.00342-.01563.01269.02979-.002-.00782-.00879Zm-.01465-.03565c.01026.00342.01416.00635.01416.01026l-.00293.00439-.00341-.00391-.0083-.00927Zm.02051.021c.00781.0039.019.01074.019.01807l-.00293.0039-.00341-.00342a.03622.03622,0,0,0-.01368-.01757Z" transform="translate(-17 -26)"/>
    <path d="M287.55273,61.95215a.01463.01463,0,0,0-.01318.00537l-.00049.00049h-.00049a.06533.06533,0,0,1-.04-.04444h-.01709v.041l.022-.00928.00049.00147c-.019.01074-.02442.01465-.02588.01709l-.001.001-.001-.00048-.00488-.0044.00537-.00928v-.03711h-.01562l-.00684.001-.00293-.00391.00781.00049h.01758v-.03076l-.00049-.01514.00879.00489.001.00049-.001.001-.00341.00293v.03662h.05517l.00488-.00683.0083.00781.00049.001-.001.00048h-.04883a.05412.05412,0,0,0,.05224.03711Zm-.01953-.0752.00049.00049-.001.00049-.00976.00488-.03369.02149-.00049-.00147a.24753.24753,0,0,0,.0376-.03222Z" transform="translate(-17 -26)"/>
    <path d="M287.582,61.88965l-.01172.03515-.00293.01465.001.00879.001.00781-.0044.00538-.00293-.00489.00049-.00293.00146-.0122c0-.00391-.00048-.00879-.01171-.01026l.00048-.002.00586.00049c.00489,0,.00586-.00147.0083-.00781l.01319-.03321Zm-.0293.00293c.00977.00342.01514.00537.01514.01123l-.00244.00439-.00293-.00341a.025.025,0,0,0-.01025-.01124Zm.00977-.023c.01025.00342.01465.00586.01465.01074l-.00244.00488-.00293-.00293a.02534.02534,0,0,0-.00977-.01171Zm.08594.081.00146.002-.002.00048h-.06445l-.00733.001-.00293-.0039.00781.00048h.02833V61.8833h-.01514l-.00733.001-.00293-.00342h.04737l.00439-.00586.00635.00586.001.002-.002.00049h-.02685v.06738h.02344l.00488-.00586Z" transform="translate(-17 -26)"/>
    <path d="M287.68848,61.92969l.00048.00049-.001.00048-.00342.00147a.16064.16064,0,0,1-.03125.02832l-.001-.00147a.14771.14771,0,0,0,.02979-.03515Zm.061-.04444.001.001-.00147.00049h-.0581l-.01709.02881h.02832v-.00635l-.00049-.0127.00879.00342.00049.00049-.00049.001-.00293.00244v.01172h.02051l.00488-.00586.00732.00683.00049.001-.001.00049h-.03223v.03515c0,.00733-.00147.00879-.00879.01221h-.00049l-.00049-.001c-.00048-.00342-.00244-.00489-.01269-.00782v-.001l.01367.00146.00342-.00342V61.918h-.02735l-.00244.00244-.00146.00049h-.00049l-.00586-.00586.00733-.00586.01367-.02246h-.021l-.00732.001-.00293-.00391.00781.00049h.0249l.00977-.01856.00634.00489.00049.001-.00049.00049-.00439.00147-.00635.01074h.04444l.00537-.00684Zm-.03222.04151c.021.0122.02783.01855.02783.02539l-.00293.00488-.00391-.00537a.06709.06709,0,0,0-.022-.02344Z" transform="translate(-17 -26)"/>
    <path d="M287.85156,61.957l-.00781.00537-.002.001c-.01709,0-.03369-.00049-.04492-.00147a.02483.02483,0,0,1-.02442-.01562l-.002-.00244c-.00244,0-.00879.01074-.01123.0166l-.001.001-.00049-.00049-.00586-.00244.0166-.01661v-.03271h-.00781l-.00586.001-.00342-.00342.00782.00049h.00781l.00293-.00489.00684.00489.00048.001-.001.001-.00293.00146v.03077c0,.00732.00879.01562.02441.01611l.01074.00049c.01221,0,.02539-.001.043-.00244Zm-.09082-.085c.0044.002.01416.00879.01416.01465l-.00342.00537-.00244-.00391a.0303.0303,0,0,0-.00927-.01513Zm.05127.01709.00049.001-.001.00048h-.01318v.01612l.01221-.00684.001.00147-.01318.00879v.02539c0,.00781-.00049.00927-.00635.01172h-.00049l-.001-.00049c-.001-.00391-.00342-.00537-.00977-.00684v-.00146l.00928.00146.00342-.00439v-.02246l-.01075.0083-.001.00049-.001-.00049-.00342-.00342.01612-.00879v-.01856h-.00391l-.00732.001-.00293-.0039.00781.00048h.00635v-.00732l-.00049-.01563.00732.00391.00049.00049-.00244.00244v.01611h.00488l.00342-.00488Zm.0376.00977.001.001-.001.00049h-.0127v.02783l.00049.01856v.00049l-.00293.00293-.002.001-.001-.00293v-.001l.00049-.01954v-.02734h-.01221c0,.03125-.00244.03857-.01953.05127l-.001-.00146c.01611-.01465.01611-.02247.01611-.05469l-.00049-.02246.00586.00537.02-.00928.00488.0044.00049.00048-.00049.00049h-.002l-.00586.001-.01807.00488V61.898h.02051l.00342-.00488Z" transform="translate(-17 -26)"/>
    <path d="M287.89258,61.897l.001.00049-.001.00049-.0044.00488a.11063.11063,0,0,1-.03564.05322l-.001-.001a.12219.12219,0,0,0,.03174-.05664h-.02051l-.00732.001-.00293-.0039.00781.00049h.02246l.00293-.00489Zm.05859.05225-.00342-.00049-.00781.00293-.001.001-.001-.00049a.1064.1064,0,0,1-.03467-.0669v.06739c0,.0083-.00146.01074-.00781.01269H287.895l-.00049-.00049c-.00049-.00293-.00244-.00537-.01367-.00781v-.002l.01367.002.00391-.00439v-.07227l-.00049-.01562.00879.00439.00049.00049-.00049.001-.00342.002v.00537a.22492.22492,0,0,0,.00928.0293.17169.17169,0,0,0,.021-.02344l.00635.00635.001.001h-.002l-.00488.002-.02051.01611c.01075.02539.02393.03516.0376.03809Z" transform="translate(-17 -26)"/>
  </g>
  <g>
    <path d="M89.76087,28H53.23913c-5.0426,0-9.13043,4.43238-9.13043,9.9V50.275h7.98913V41.6125a4.7693,4.7693,0,0,1,4.56521-4.95H86.337a4.7693,4.7693,0,0,1,4.56521,4.95V50.275H98.8913V37.9C98.8913,32.43238,94.80347,28,89.76087,28Z" transform="translate(-17 -26)" style="fill: #575072"/>
    <path d="M28.13043,50.275h86.73914c5.0426,0,9.13043,4.43238,9.13043,9.9V117.1c0,5.46762-4.08783,9.9-9.13043,9.9H28.13043C23.08783,127,19,122.56762,19,117.1V60.175C19,54.70738,23.08783,50.275,28.13043,50.275Z" transform="translate(-17 -26)" style="fill: #eaeaea"/>
    <path d="M89.76087,28H53.23913c-5.0426,0-9.13043,4.43238-9.13043,9.9V50.275h7.98913V41.6125a4.7693,4.7693,0,0,1,4.56521-4.95H86.337a4.7693,4.7693,0,0,1,4.56521,4.95V50.275H98.8913V37.9C98.8913,32.43238,94.80347,28,89.76087,28Z" transform="translate(-17 -26)" style="fill: none;stroke: #281a3b;stroke-linecap: round;stroke-linejoin: round;stroke-width: 4px"/>
    <path d="M80.63043,99.775H90.90217a3.577,3.577,0,0,0,3.42392-3.7125h0V83.6875a3.577,3.577,0,0,0-3.42392-3.7125H80.63043V68.8375a3.577,3.577,0,0,0-3.42391-3.7125h-11.413a3.577,3.577,0,0,0-3.42391,3.7125V79.975H52.09783a3.577,3.577,0,0,0-3.42392,3.7125v12.375a3.577,3.577,0,0,0,3.42392,3.7125H62.36957v11.1375a3.577,3.577,0,0,0,3.42391,3.7125h11.413a3.577,3.577,0,0,0,3.42391-3.7125Z" transform="translate(-17 -26)" style="fill: #f47c6d"/>
    <path d="M80.63043,99.775H90.90217a3.577,3.577,0,0,0,3.42392-3.7125h0V83.6875a3.577,3.577,0,0,0-3.42392-3.7125H80.63043V68.8375a3.577,3.577,0,0,0-3.42391-3.7125h-11.413a3.577,3.577,0,0,0-3.42391,3.7125V79.975H52.09783a3.577,3.577,0,0,0-3.42392,3.7125v12.375a3.577,3.577,0,0,0,3.42392,3.7125H62.36957v11.1375a3.577,3.577,0,0,0,3.42391,3.7125h11.413a3.577,3.577,0,0,0,3.42391-3.7125Z" transform="translate(-17 -26)" style="fill: none;stroke: #281a3b;stroke-linecap: round;stroke-linejoin: round;stroke-width: 4px"/>
    <path d="M124,60.175c0-5.46762-4.08783-9.9-9.13043-9.9H97.75c9.45487,0,17.11957,8.31071,17.11957,18.5625v39.6c0,10.25179-7.6647,18.5625-17.11957,18.5625h17.11957c5.0426,0,9.13043-4.43238,9.13043-9.9Z" transform="translate(-17 -26)" style="fill: #bacece"/>
    <path d="M28.13043,50.275h86.73914c5.0426,0,9.13043,4.43238,9.13043,9.9V117.1c0,5.46762-4.08783,9.9-9.13043,9.9H28.13043C23.08783,127,19,122.56762,19,117.1V60.175C19,54.70738,23.08783,50.275,28.13043,50.275Z" transform="translate(-17 -26)" style="fill: none;stroke: #281a3b;stroke-linecap: round;stroke-linejoin: round;stroke-width: 4px"/>
  </g>
</svg>
